<?xml version="1.0" encoding="UTF-8"?>
<!DOCTYPE svg PUBLIC "-//W3C//DTD SVG 1.1//EN" "http://www.w3.org/Graphics/SVG/1.1/DTD/svg11.dtd">
<svg version="1.2" width="210mm" height="210mm" viewBox="0 0 21000 21000" preserveAspectRatio="xMidYMid" fill-rule="evenodd" stroke-width="28.222" stroke-linejoin="round" xmlns="http://www.w3.org/2000/svg" xmlns:ooo="http://xml.openoffice.org/svg/export" xmlns:xlink="http://www.w3.org/1999/xlink" xmlns:presentation="http://sun.com/xmlns/staroffice/presentation" xmlns:smil="http://www.w3.org/2001/SMIL20/" xmlns:anim="urn:oasis:names:tc:opendocument:xmlns:animation:1.0" xmlns:svg="urn:oasis:names:tc:opendocument:xmlns:svg-compatible:1.0" xml:space="preserve">
 <defs class="ClipPathGroup">
  <clipPath id="presentation_clip_path" clipPathUnits="userSpaceOnUse">
   <rect x="0" y="0" width="21000" height="21000"/>
  </clipPath>
  <clipPath id="presentation_clip_path_shrink" clipPathUnits="userSpaceOnUse">
   <rect x="21" y="21" width="20958" height="20958"/>
  </clipPath>
 </defs>
 <defs class="TextShapeIndex">
  <g ooo:slide="id1" ooo:id-list="id3 id4 id5 id6 id7 id8 id9 id10 id11 id12 id13 id14 id15 id16 id17 id18 id19 id20 id21 id22 id23 id24 id25 id26 id27 id28 id29 id30 id31 id32 id33 id34 id35 id36 id37"/>
 </defs>
 <defs class="EmbeddedBulletChars">
  <g id="bullet-char-template-57356" transform="scale(0.00048828125,-0.00048828125)">
   <path d="M 580,1141 L 1163,571 580,0 -4,571 580,1141 Z"/>
  </g>
  <g id="bullet-char-template-57354" transform="scale(0.00048828125,-0.00048828125)">
   <path d="M 8,1128 L 1137,1128 1137,0 8,0 8,1128 Z"/>
  </g>
  <g id="bullet-char-template-10146" transform="scale(0.00048828125,-0.00048828125)">
   <path d="M 174,0 L 602,739 174,1481 1456,739 174,0 Z M 1358,739 L 309,1346 659,739 1358,739 Z"/>
  </g>
  <g id="bullet-char-template-10132" transform="scale(0.00048828125,-0.00048828125)">
   <path d="M 2015,739 L 1276,0 717,0 1260,543 174,543 174,936 1260,936 717,1481 1274,1481 2015,739 Z"/>
  </g>
  <g id="bullet-char-template-10007" transform="scale(0.00048828125,-0.00048828125)">
   <path d="M 0,-2 C -7,14 -16,27 -25,37 L 356,567 C 262,823 215,952 215,954 215,979 228,992 255,992 264,992 276,990 289,987 310,991 331,999 354,1012 L 381,999 492,748 772,1049 836,1024 860,1049 C 881,1039 901,1025 922,1006 886,937 835,863 770,784 769,783 710,716 594,584 L 774,223 C 774,196 753,168 711,139 L 727,119 C 717,90 699,76 672,76 641,76 570,178 457,381 L 164,-76 C 142,-110 111,-127 72,-127 30,-127 9,-110 8,-76 1,-67 -2,-52 -2,-32 -2,-23 -1,-13 0,-2 Z"/>
  </g>
  <g id="bullet-char-template-10004" transform="scale(0.00048828125,-0.00048828125)">
   <path d="M 285,-33 C 182,-33 111,30 74,156 52,228 41,333 41,471 41,549 55,616 82,672 116,743 169,778 240,778 293,778 328,747 346,684 L 369,508 C 377,444 397,411 428,410 L 1163,1116 C 1174,1127 1196,1133 1229,1133 1271,1133 1292,1118 1292,1087 L 1292,965 C 1292,929 1282,901 1262,881 L 442,47 C 390,-6 338,-33 285,-33 Z"/>
  </g>
  <g id="bullet-char-template-9679" transform="scale(0.00048828125,-0.00048828125)">
   <path d="M 813,0 C 632,0 489,54 383,161 276,268 223,411 223,592 223,773 276,916 383,1023 489,1130 632,1184 813,1184 992,1184 1136,1130 1245,1023 1353,916 1407,772 1407,592 1407,412 1353,268 1245,161 1136,54 992,0 813,0 Z"/>
  </g>
  <g id="bullet-char-template-8226" transform="scale(0.00048828125,-0.00048828125)">
   <path d="M 346,457 C 273,457 209,483 155,535 101,586 74,649 74,723 74,796 101,859 155,911 209,963 273,989 346,989 419,989 480,963 531,910 582,859 608,796 608,723 608,648 583,586 532,535 482,483 420,457 346,457 Z"/>
  </g>
  <g id="bullet-char-template-8211" transform="scale(0.00048828125,-0.00048828125)">
   <path d="M -4,459 L 1135,459 1135,606 -4,606 -4,459 Z"/>
  </g>
  <g id="bullet-char-template-61548" transform="scale(0.00048828125,-0.00048828125)">
   <path d="M 173,740 C 173,903 231,1043 346,1159 462,1274 601,1332 765,1332 928,1332 1067,1274 1183,1159 1299,1043 1357,903 1357,740 1357,577 1299,437 1183,322 1067,206 928,148 765,148 601,148 462,206 346,322 231,437 173,577 173,740 Z"/>
  </g>
 </defs>
 <g>
  <g id="id2" class="Master_Slide">
   <g id="bg-id2" class="Background"/>
   <g id="bo-id2" class="BackgroundObjects"/>
  </g>
 </g>
 <g class="SlideGroup">
  <g>
   <g id="container-id1">
    <g id="id1" class="Slide" clip-path="url(#presentation_clip_path)">
     <g class="Page">
      <g class="com.sun.star.drawing.CustomShape">
       <g id="id3">
        <rect class="BoundingBox" stroke="none" fill="none" x="13340" y="3001" width="582" height="739"/>
        <path fill="rgb(0,0,0)" stroke="none" d="M 13920,3370 C 13920,3435 13907,3498 13881,3554 13856,3610 13819,3656 13775,3689 13731,3721 13681,3738 13631,3738 13580,3738 13530,3721 13486,3689 13442,3656 13405,3610 13380,3554 13354,3498 13341,3435 13341,3370 13341,3305 13354,3242 13380,3186 13405,3130 13442,3084 13486,3051 13530,3019 13580,3002 13631,3002 13681,3002 13731,3019 13775,3051 13819,3084 13856,3130 13881,3186 13907,3242 13920,3305 13920,3370 L 13920,3370 Z"/>
        <path fill="none" stroke="rgb(0,0,0)" d="M 13920,3370 C 13920,3435 13907,3498 13881,3554 13856,3610 13819,3656 13775,3689 13731,3721 13681,3738 13631,3738 13580,3738 13530,3721 13486,3689 13442,3656 13405,3610 13380,3554 13354,3498 13341,3435 13341,3370 13341,3305 13354,3242 13380,3186 13405,3130 13442,3084 13486,3051 13530,3019 13580,3002 13631,3002 13681,3002 13731,3019 13775,3051 13819,3084 13856,3130 13881,3186 13907,3242 13920,3305 13920,3370 L 13920,3370 Z"/>
       </g>
      </g>
      <g class="com.sun.star.drawing.CustomShape">
       <g id="id4">
        <rect class="BoundingBox" stroke="none" fill="none" x="17806" y="3001" width="582" height="739"/>
        <path fill="rgb(0,0,0)" stroke="none" d="M 18386,3370 C 18386,3435 18373,3498 18347,3554 18322,3610 18285,3656 18241,3689 18197,3721 18147,3738 18097,3738 18046,3738 17996,3721 17952,3689 17908,3656 17871,3610 17846,3554 17820,3498 17807,3435 17807,3370 17807,3305 17820,3242 17846,3186 17871,3130 17908,3084 17952,3051 17996,3019 18046,3002 18097,3002 18147,3002 18197,3019 18241,3051 18285,3084 18322,3130 18347,3186 18373,3242 18386,3305 18386,3370 L 18386,3370 Z"/>
        <path fill="none" stroke="rgb(0,0,0)" d="M 18386,3370 C 18386,3435 18373,3498 18347,3554 18322,3610 18285,3656 18241,3689 18197,3721 18147,3738 18097,3738 18046,3738 17996,3721 17952,3689 17908,3656 17871,3610 17846,3554 17820,3498 17807,3435 17807,3370 17807,3305 17820,3242 17846,3186 17871,3130 17908,3084 17952,3051 17996,3019 18046,3002 18097,3002 18147,3002 18197,3019 18241,3051 18285,3084 18322,3130 18347,3186 18373,3242 18386,3305 18386,3370 L 18386,3370 Z"/>
       </g>
      </g>
      <g class="com.sun.star.drawing.CustomShape">
       <g id="id5">
        <rect class="BoundingBox" stroke="none" fill="none" x="14047" y="3158" width="988" height="489"/>
        <path fill="rgb(0,0,0)" stroke="none" d="M 14541,3645 L 14048,3645 14048,3159 15033,3159 15033,3645 14541,3645 Z"/>
        <path fill="none" stroke="rgb(0,0,0)" d="M 14541,3645 L 14048,3645 14048,3159 15033,3159 15033,3645 14541,3645 Z"/>
       </g>
      </g>
      <g class="com.sun.star.drawing.CustomShape">
       <g id="id6">
        <rect class="BoundingBox" stroke="none" fill="none" x="15175" y="3158" width="988" height="489"/>
        <path fill="rgb(0,0,0)" stroke="none" d="M 15669,3645 L 15176,3645 15176,3159 16161,3159 16161,3645 15669,3645 Z"/>
        <path fill="none" stroke="rgb(0,0,0)" d="M 15669,3645 L 15176,3645 15176,3159 16161,3159 16161,3645 15669,3645 Z"/>
       </g>
      </g>
      <g class="com.sun.star.drawing.CustomShape">
       <g id="id7">
        <rect class="BoundingBox" stroke="none" fill="none" x="16305" y="3158" width="988" height="489"/>
        <path fill="rgb(0,0,0)" stroke="none" d="M 16799,3645 L 16306,3645 16306,3159 17291,3159 17291,3645 16799,3645 Z"/>
        <path fill="none" stroke="rgb(0,0,0)" d="M 16799,3645 L 16306,3645 16306,3159 17291,3159 17291,3645 16799,3645 Z"/>
       </g>
      </g>
      <g class="com.sun.star.drawing.CustomShape">
       <g id="id8">
        <rect class="BoundingBox" stroke="none" fill="none" x="17426" y="3158" width="253" height="489"/>
        <path fill="rgb(0,0,0)" stroke="none" d="M 17552,3645 L 17427,3645 17427,3159 17677,3159 17677,3645 17552,3645 Z"/>
        <path fill="none" stroke="rgb(0,0,0)" d="M 17552,3645 L 17427,3645 17427,3159 17677,3159 17677,3645 17552,3645 Z"/>
       </g>
      </g>
      <g class="com.sun.star.drawing.ClosedBezierShape">
       <g id="id9">
        <rect class="BoundingBox" stroke="none" fill="none" x="14048" y="3915" width="3231" height="5189"/>
        <path fill="rgb(0,0,0)" stroke="none" d="M 14049,5823 C 14049,5187 14049,4552 14049,3916 15125,3916 16201,3916 17277,3916 17277,5645 17277,7373 17277,9102 17167,8992 17058,8883 16948,8773 16948,7737 16948,6702 16948,5666 16949,4888 16223,4406 15863,4331 15750,4304 15736,4282 15670,4231 15635,4282 15485,4334 15409,4358 14794,4512 14220,5344 14263,6049 14071,5845 14235,6025 14049,5823 Z"/>
        <path fill="none" stroke="rgb(0,0,0)" d="M 14049,5823 L 14049,3916 17277,3916 17277,9102 16948,8773 16948,5666 C 16949,4888 16223,4406 15863,4331 15750,4304 15736,4282 15670,4231 15635,4282 15485,4334 15409,4358 14794,4512 14220,5344 14263,6049 14071,5845 14235,6025 14049,5823 Z"/>
       </g>
      </g>
      <g class="com.sun.star.drawing.ClosedBezierShape">
       <g id="id10">
        <rect class="BoundingBox" stroke="none" fill="none" x="15161" y="5010" width="933" height="2860"/>
        <path fill="rgb(0,0,0)" stroke="none" d="M 15492,7276 C 15492,6743 15492,6209 15492,5676 15492,5534 15582,5483 15627,5386 15671,5481 15766,5521 15758,5672 15758,6295 15758,6918 15758,7541 15869,7650 15981,7759 16092,7868 16092,7095 16092,6322 16092,5549 16088,5305 15839,5085 15623,5011 15378,5113 15158,5309 15162,5554 15162,6013 15162,6471 15162,6930 15272,7045 15382,7161 15492,7276 Z"/>
        <path fill="none" stroke="rgb(0,0,0)" d="M 15492,7276 L 15492,5676 C 15492,5534 15582,5483 15627,5386 15671,5481 15766,5521 15758,5672 L 15758,7541 C 15869,7650 15981,7759 16092,7868 L 16092,5549 C 16088,5305 15839,5085 15623,5011 15378,5113 15158,5309 15162,5554 L 15162,6930 C 15272,7045 15382,7161 15492,7276 Z"/>
       </g>
      </g>
      <g class="com.sun.star.drawing.ClosedBezierShape">
       <g id="id11">
        <rect class="BoundingBox" stroke="none" fill="none" x="14565" y="4508" width="2142" height="3987"/>
        <path fill="rgb(0,0,0)" stroke="none" d="M 14566,6346 C 14566,6145 14566,5943 14566,5742 14558,5145 15011,4729 15688,4509 16443,4778 16692,5068 16705,5860 16705,6738 16705,7615 16705,8493 16567,8355 16430,8218 16292,8080 16292,7257 16292,6434 16292,5611 16292,5207 15975,4984 15677,4821 15311,4979 14937,5300 14929,5753 14929,6073 14929,6393 14929,6713 14808,6591 14687,6468 14566,6346 Z"/>
        <path fill="none" stroke="rgb(0,0,0)" d="M 14566,6346 L 14566,5742 C 14558,5145 15011,4729 15688,4509 16443,4778 16692,5068 16705,5860 L 16705,8493 16292,8080 16292,5611 C 16292,5207 15975,4984 15677,4821 15311,4979 14937,5300 14929,5753 L 14929,6713 C 14808,6591 14687,6468 14566,6346 Z"/>
       </g>
      </g>
      <g class="com.sun.star.drawing.ClosedBezierShape">
       <g id="id12">
        <rect class="BoundingBox" stroke="none" fill="none" x="15161" y="5011" width="933" height="2860"/>
        <path fill="rgb(0,0,0)" stroke="none" d="M 15492,7277 C 15492,6744 15492,6210 15492,5677 15492,5535 15582,5484 15627,5387 15671,5482 15766,5522 15758,5673 15758,6296 15758,6919 15758,7542 15869,7651 15981,7760 16092,7869 16092,7096 16092,6323 16092,5550 16088,5306 15839,5086 15623,5012 15378,5114 15158,5310 15162,5555 15162,6014 15162,6472 15162,6931 15272,7046 15382,7162 15492,7277 Z"/>
        <path fill="none" stroke="rgb(0,0,0)" d="M 15492,7277 L 15492,5677 C 15492,5535 15582,5484 15627,5387 15671,5482 15766,5522 15758,5673 L 15758,7542 C 15869,7651 15981,7760 16092,7869 L 16092,5550 C 16088,5306 15839,5086 15623,5012 15378,5114 15158,5310 15162,5555 L 15162,6931 C 15272,7046 15382,7162 15492,7277 Z"/>
       </g>
      </g>
      <g class="com.sun.star.drawing.ClosedBezierShape">
       <g id="id13">
        <rect class="BoundingBox" stroke="none" fill="none" x="14059" y="13292" width="3217" height="5000"/>
        <path fill="rgb(0,0,0)" stroke="none" d="M 15665,14297 L 15665,14302 C 15438,14529 15048,14614 14837,14888 14551,15284 14351,15713 14282,16199 14781,15513 15362,15743 15665,16204 L 15665,16211 C 15666,16210 15667,16208 15668,16207 15668,16208 15669,16210 15670,16211 L 15670,16204 C 15973,15743 16554,15513 17053,16199 16984,15713 16784,15284 16498,14888 16287,14614 15897,14529 15670,14302 L 15670,14297 C 15669,14297 15668,14298 15668,14299 15667,14298 15666,14297 15665,14297 Z M 14060,18290 L 14060,14922 15675,13293 17274,15206 17274,18257 C 17173,18178 17071,18098 16970,18019 L 16970,16573 C 16970,16403 16786,16358 16719,16206 16664,16337 16476,16403 16480,16522 L 16480,17683 C 16394,17614 16309,17545 16223,17476 L 16235,16477 C 16227,16358 16416,16120 16506,15941 16076,15884 15807,16309 15811,16623 15817,16843 15822,17063 15828,17283 L 15544,17283 C 15542,17063 15539,16843 15537,16623 15537,16309 15174,15901 14770,15922 14880,16115 15097,16370 15099,16502 L 15099,17535 C 15007,17604 14914,17672 14822,17741 L 14822,16522 C 14823,16403 14660,16358 14611,16236 14537,16362 14337,16436 14337,16538 14337,17054 14338,17554 14338,18070 14245,18143 14153,18217 14060,18290 Z"/>
        <path fill="none" stroke="rgb(0,0,0)" d="M 15665,14297 L 15665,14302 C 15438,14529 15048,14614 14837,14888 14551,15284 14351,15713 14282,16199 14781,15513 15362,15743 15665,16204 L 15665,16211 C 15666,16210 15667,16208 15668,16207 15668,16208 15669,16210 15670,16211 L 15670,16204 C 15973,15743 16554,15513 17053,16199 16984,15713 16784,15284 16498,14888 16287,14614 15897,14529 15670,14302 L 15670,14297 C 15669,14297 15668,14298 15668,14299 15667,14298 15666,14297 15665,14297 Z"/>
        <path fill="none" stroke="rgb(0,0,0)" d="M 14060,18290 L 14060,14922 15675,13293 17274,15206 17274,18257 C 17173,18178 17071,18098 16970,18019 L 16970,16573 C 16970,16403 16786,16358 16719,16206 16664,16337 16476,16403 16480,16522 L 16480,17683 C 16394,17614 16309,17545 16223,17476 L 16235,16477 C 16227,16358 16416,16120 16506,15941 16076,15884 15807,16309 15811,16623 15817,16843 15822,17063 15828,17283 L 15544,17283 C 15542,17063 15539,16843 15537,16623 15537,16309 15174,15901 14770,15922 14880,16115 15097,16370 15099,16502 L 15099,17535 C 15007,17604 14914,17672 14822,17741 L 14822,16522 C 14823,16403 14660,16358 14611,16236 14537,16362 14337,16436 14337,16538 14337,17054 14338,17554 14338,18070 14245,18143 14153,18217 14060,18290 Z"/>
       </g>
      </g>
      <g class="com.sun.star.drawing.ClosedBezierShape">
       <g id="id14">
        <rect class="BoundingBox" stroke="none" fill="none" x="16452" y="15212" width="238" height="425"/>
        <path fill="rgb(0,0,0)" stroke="none" d="M 16457,15474 C 16441,15414 16472,15182 16507,15217 16586,15295 16674,15421 16688,15620 16688,15685 16478,15533 16457,15474 Z"/>
        <path fill="none" stroke="rgb(0,0,0)" d="M 16457,15474 C 16441,15414 16472,15182 16507,15217 16586,15295 16674,15421 16688,15620 16688,15685 16478,15533 16457,15474 Z"/>
       </g>
      </g>
      <g class="com.sun.star.drawing.ClosedBezierShape">
       <g id="id15">
        <rect class="BoundingBox" stroke="none" fill="none" x="12556" y="3832" width="1156" height="1157"/>
        <path fill="rgb(0,0,0)" stroke="none" d="M 12557,4350 L 12681,4309 C 12688,4286 12697,4265 12708,4244 L 12616,4062 12718,3961 12899,4052 C 12920,4042 12942,4033 12964,4025 L 13028,3833 13171,3833 13235,4025 C 13257,4033 13279,4042 13300,4052 L 13481,3961 13582,4062 13492,4244 C 13502,4264 13511,4286 13519,4309 L 13710,4372 13710,4516 13519,4579 C 13512,4602 13502,4624 13492,4645 L 13582,4826 13481,4927 13300,4836 C 13279,4847 13257,4856 13235,4864 L 13194,4987 12557,4350 Z M 13297,4558 C 13317,4524 13327,4484 13327,4445 13327,4404 13317,4365 13297,4331 13277,4296 13248,4267 13213,4248 13179,4227 13140,4217 13100,4217 13060,4217 13021,4227 12986,4248 12951,4267 12923,4296 12903,4331 12883,4365 12872,4404 12872,4445 12872,4484 12883,4524 12903,4558 12923,4593 12951,4621 12986,4641 13021,4661 13060,4672 13100,4672 13140,4672 13179,4661 13213,4641 13248,4621 13277,4593 13297,4558 Z"/>
        <path fill="none" stroke="rgb(0,0,0)" d="M 12557,4350 L 12681,4309 C 12688,4286 12697,4265 12708,4244 L 12616,4062 12718,3961 12899,4052 C 12920,4042 12942,4033 12964,4025 L 13028,3833 13171,3833 13235,4025 C 13257,4033 13279,4042 13300,4052 L 13481,3961 13582,4062 13492,4244 C 13502,4264 13511,4286 13519,4309 L 13710,4372 13710,4516 13519,4579 C 13512,4602 13502,4624 13492,4645 L 13582,4826 13481,4927 13300,4836 C 13279,4847 13257,4856 13235,4864 L 13194,4987 12557,4350 Z"/>
        <path fill="none" stroke="rgb(0,0,0)" d="M 13297,4558 C 13317,4524 13327,4484 13327,4445 13327,4404 13317,4365 13297,4331 13277,4296 13248,4267 13213,4248 13179,4227 13140,4217 13100,4217 13060,4217 13021,4227 12986,4248 12951,4267 12923,4296 12903,4331 12883,4365 12872,4404 12872,4445 12872,4484 12883,4524 12903,4558 12923,4593 12951,4621 12986,4641 13021,4661 13060,4672 13100,4672 13140,4672 13179,4661 13213,4641 13248,4621 13277,4593 13297,4558 Z"/>
       </g>
      </g>
      <g class="com.sun.star.drawing.ClosedBezierShape">
       <g id="id16">
        <rect class="BoundingBox" stroke="none" fill="none" x="12514" y="15702" width="1225" height="1225"/>
        <path fill="rgb(0,0,0)" stroke="none" d="M 13194,15703 L 13198,15703 13262,15895 C 13284,15903 13306,15912 13326,15922 L 13508,15831 13609,15932 13518,16114 C 13529,16134 13538,16156 13545,16179 L 13737,16242 13737,16386 13546,16449 C 13538,16472 13529,16494 13518,16515 L 13609,16696 13508,16797 13327,16706 C 13306,16717 13284,16726 13261,16734 L 13198,16925 13054,16925 12991,16733 C 12968,16726 12946,16717 12926,16706 L 12744,16797 12643,16696 12734,16514 C 12724,16494 12715,16472 12707,16450 L 12515,16386 12515,16382 13194,15703 Z M 13323,16428 C 13343,16394 13354,16354 13354,16315 13354,16274 13343,16235 13323,16201 13303,16166 13275,16137 13240,16118 13206,16097 13166,16087 13127,16087 13086,16087 13047,16097 13013,16118 12978,16137 12949,16166 12930,16201 12909,16235 12899,16274 12899,16315 12899,16354 12909,16394 12930,16428 12949,16463 12978,16491 13013,16511 13047,16531 13086,16542 13127,16542 13166,16542 13206,16531 13240,16511 13275,16491 13303,16463 13323,16428 Z"/>
        <path fill="none" stroke="rgb(0,0,0)" d="M 13194,15703 L 13198,15703 13262,15895 C 13284,15903 13306,15912 13326,15922 L 13508,15831 13609,15932 13518,16114 C 13529,16134 13538,16156 13545,16179 L 13737,16242 13737,16386 13546,16449 C 13538,16472 13529,16494 13518,16515 L 13609,16696 13508,16797 13327,16706 C 13306,16717 13284,16726 13261,16734 L 13198,16925 13054,16925 12991,16733 C 12968,16726 12946,16717 12926,16706 L 12744,16797 12643,16696 12734,16514 C 12724,16494 12715,16472 12707,16450 L 12515,16386 12515,16382 13194,15703 Z"/>
        <path fill="none" stroke="rgb(0,0,0)" d="M 13323,16428 C 13343,16394 13354,16354 13354,16315 13354,16274 13343,16235 13323,16201 13303,16166 13275,16137 13240,16118 13206,16097 13166,16087 13127,16087 13086,16087 13047,16097 13013,16118 12978,16137 12949,16166 12930,16201 12909,16235 12899,16274 12899,16315 12899,16354 12909,16394 12930,16428 12949,16463 12978,16491 13013,16511 13047,16531 13086,16542 13127,16542 13166,16542 13206,16531 13240,16511 13275,16491 13303,16463 13323,16428 Z"/>
       </g>
      </g>
      <g class="com.sun.star.drawing.ClosedBezierShape">
       <g id="id17">
        <rect class="BoundingBox" stroke="none" fill="none" x="14666" y="15213" width="238" height="425"/>
        <path fill="rgb(0,0,0)" stroke="none" d="M 14898,15475 C 14914,15415 14883,15183 14848,15218 14769,15296 14681,15422 14667,15621 14667,15686 14877,15534 14898,15475 Z"/>
        <path fill="none" stroke="rgb(0,0,0)" d="M 14898,15475 C 14914,15415 14883,15183 14848,15218 14769,15296 14681,15422 14667,15621 14667,15686 14877,15534 14898,15475 Z"/>
       </g>
      </g>
      <g class="com.sun.star.drawing.ClosedBezierShape">
       <g id="id18">
        <rect class="BoundingBox" stroke="none" fill="none" x="14994" y="14584" width="1363" height="1200"/>
        <path fill="rgb(0,0,0)" stroke="none" d="M 15680,15376 C 15694,15376 15709,15373 15726,15369 15742,15365 15759,15359 15776,15351 15811,15336 15847,15316 15880,15292 15913,15268 15942,15241 15963,15215 15974,15201 15982,15188 15988,15175 15991,15169 15993,15163 15995,15156 15997,15150 15998,15144 15998,15138 15998,15132 15997,15126 15995,15119 15993,15113 15991,15107 15987,15100 15981,15088 15971,15076 15959,15064 15936,15039 15904,15015 15869,14990 15834,14965 15797,14938 15763,14909 15729,14880 15699,14849 15678,14814 15677,14814 15677,14814 15676,14814 L 15675,14814 C 15674,14815 15674,14815 15673,14815 L 15672,14815 C 15651,14850 15621,14881 15587,14910 15553,14939 15515,14966 15481,14991 15446,15016 15414,15040 15390,15065 15378,15077 15369,15089 15362,15101 15359,15108 15356,15114 15354,15120 15353,15127 15352,15133 15352,15139 15352,15145 15353,15151 15354,15157 15356,15164 15358,15170 15361,15176 15367,15189 15376,15202 15387,15216 15408,15242 15437,15269 15470,15293 15502,15317 15538,15337 15573,15352 15591,15360 15608,15366 15624,15370 15640,15374 15656,15377 15670,15377 15670,15377 15671,15377 15672,15377 15672,15376 15672,15376 15672,15376 15673,15376 15673,15377 15674,15377 15675,15377 15675,15376 15676,15376 L 15677,15375 C 15678,15375 15678,15375 15678,15376 15679,15376 15679,15376 15680,15376 Z M 15674,14584 C 15675,14584 15675,14584 15676,14584 L 15677,14584 C 15775,14610 15867,14650 15949,14699 16031,14749 16104,14808 16164,14872 16224,14937 16272,15008 16305,15081 16321,15117 16334,15154 16343,15191 16351,15228 16356,15265 16356,15301 16356,15319 16355,15337 16352,15355 L 16352,15356 C 16352,15357 16351,15357 16351,15358 16350,15358 16349,15358 16349,15358 16348,15358 16348,15358 16348,15358 16273,15336 16191,15321 16119,15321 16083,15321 16049,15325 16020,15333 16005,15337 15992,15343 15980,15349 15968,15356 15958,15364 15949,15373 15947,15375 15946,15377 15945,15379 15944,15381 15944,15383 15944,15386 15944,15388 15944,15391 15946,15394 15947,15397 15948,15400 15950,15403 15955,15410 15961,15417 15969,15425 15986,15440 16008,15455 16034,15470 16086,15501 16151,15530 16202,15546 L 16203,15546 C 16203,15547 16204,15547 16204,15548 16204,15548 16204,15549 16204,15550 L 16204,15551 C 16204,15551 16204,15552 16203,15552 16135,15628 16068,15705 16000,15781 L 16000,15782 C 15999,15782 15998,15782 15998,15782 15997,15782 15997,15782 15996,15782 15996,15781 15995,15781 15995,15781 15948,15718 15901,15665 15849,15624 15823,15603 15796,15586 15768,15571 15739,15557 15709,15546 15677,15539 L 15676,15539 C 15676,15538 15675,15538 15675,15538 15675,15539 15674,15539 15674,15540 15673,15540 15673,15540 15673,15540 15640,15547 15610,15558 15582,15572 15553,15587 15526,15604 15500,15625 15449,15666 15401,15719 15355,15782 15354,15782 15354,15782 15354,15783 15353,15783 15352,15783 15352,15783 15351,15783 15351,15783 15350,15783 15350,15782 15349,15782 15349,15782 15281,15706 15214,15629 15146,15553 L 15146,15552 C 15145,15552 15145,15551 15145,15551 15145,15550 15145,15549 15146,15549 15146,15548 15147,15548 15147,15547 L 15148,15547 C 15198,15531 15263,15502 15315,15471 15341,15456 15364,15441 15380,15426 15388,15418 15395,15411 15399,15404 15401,15401 15403,15398 15404,15395 15405,15392 15406,15389 15406,15387 15406,15384 15405,15382 15404,15380 15404,15378 15402,15376 15400,15374 15392,15365 15381,15357 15370,15350 15358,15344 15344,15338 15330,15334 15301,15326 15267,15322 15230,15322 15158,15322 15076,15337 15002,15359 15001,15359 15001,15359 15001,15359 15000,15359 15000,15359 14999,15359 14999,15358 14998,15358 14998,15357 L 14997,15356 C 14995,15338 14994,15320 14994,15302 14994,15266 14998,15229 15007,15192 15016,15155 15028,15118 15045,15082 15078,15009 15126,14938 15186,14873 15246,14809 15319,14750 15401,14700 15483,14651 15574,14611 15673,14585 15674,14585 15674,14585 15674,14584 Z"/>
       </g>
      </g>
      <g class="com.sun.star.drawing.CustomShape">
       <g id="id19">
        <rect class="BoundingBox" stroke="none" fill="none" x="7080" y="3001" width="582" height="739"/>
        <path fill="rgb(0,0,0)" stroke="none" d="M 7081,3370 C 7081,3435 7094,3498 7120,3554 7145,3610 7182,3656 7226,3689 7270,3721 7320,3738 7371,3738 7421,3738 7471,3721 7515,3689 7559,3656 7596,3610 7621,3554 7647,3498 7660,3435 7660,3370 7660,3305 7647,3242 7621,3186 7596,3130 7559,3084 7515,3051 7471,3019 7421,3002 7371,3002 7320,3002 7270,3019 7226,3051 7182,3084 7145,3130 7120,3186 7094,3242 7081,3305 7081,3370 L 7081,3370 Z"/>
        <path fill="none" stroke="rgb(0,0,0)" d="M 7081,3370 C 7081,3435 7094,3498 7120,3554 7145,3610 7182,3656 7226,3689 7270,3721 7320,3738 7371,3738 7421,3738 7471,3721 7515,3689 7559,3656 7596,3610 7621,3554 7647,3498 7660,3435 7660,3370 7660,3305 7647,3242 7621,3186 7596,3130 7559,3084 7515,3051 7471,3019 7421,3002 7371,3002 7320,3002 7270,3019 7226,3051 7182,3084 7145,3130 7120,3186 7094,3242 7081,3305 7081,3370 L 7081,3370 Z"/>
       </g>
      </g>
      <g class="com.sun.star.drawing.CustomShape">
       <g id="id20">
        <rect class="BoundingBox" stroke="none" fill="none" x="2614" y="3001" width="582" height="739"/>
        <path fill="rgb(0,0,0)" stroke="none" d="M 2615,3370 C 2615,3435 2628,3498 2654,3554 2679,3610 2716,3656 2760,3689 2804,3721 2854,3738 2905,3738 2955,3738 3005,3721 3049,3689 3093,3656 3130,3610 3155,3554 3181,3498 3194,3435 3194,3370 3194,3305 3181,3242 3155,3186 3130,3130 3093,3084 3049,3051 3005,3019 2955,3002 2905,3002 2854,3002 2804,3019 2760,3051 2716,3084 2679,3130 2654,3186 2628,3242 2615,3305 2615,3370 L 2615,3370 Z"/>
        <path fill="none" stroke="rgb(0,0,0)" d="M 2615,3370 C 2615,3435 2628,3498 2654,3554 2679,3610 2716,3656 2760,3689 2804,3721 2854,3738 2905,3738 2955,3738 3005,3721 3049,3689 3093,3656 3130,3610 3155,3554 3181,3498 3194,3435 3194,3370 3194,3305 3181,3242 3155,3186 3130,3130 3093,3084 3049,3051 3005,3019 2955,3002 2905,3002 2854,3002 2804,3019 2760,3051 2716,3084 2679,3130 2654,3186 2628,3242 2615,3305 2615,3370 L 2615,3370 Z"/>
       </g>
      </g>
      <g class="com.sun.star.drawing.CustomShape">
       <g id="id21">
        <rect class="BoundingBox" stroke="none" fill="none" x="5960" y="3158" width="988" height="489"/>
        <path fill="rgb(0,0,0)" stroke="none" d="M 6454,3645 L 5961,3645 5961,3159 6946,3159 6946,3645 6454,3645 Z"/>
        <path fill="none" stroke="rgb(0,0,0)" d="M 6454,3645 L 5961,3645 5961,3159 6946,3159 6946,3645 6454,3645 Z"/>
       </g>
      </g>
      <g class="com.sun.star.drawing.CustomShape">
       <g id="id22">
        <rect class="BoundingBox" stroke="none" fill="none" x="4832" y="3158" width="988" height="489"/>
        <path fill="rgb(0,0,0)" stroke="none" d="M 5326,3645 L 4833,3645 4833,3159 5818,3159 5818,3645 5326,3645 Z"/>
        <path fill="none" stroke="rgb(0,0,0)" d="M 5326,3645 L 4833,3645 4833,3159 5818,3159 5818,3645 5326,3645 Z"/>
       </g>
      </g>
      <g class="com.sun.star.drawing.CustomShape">
       <g id="id23">
        <rect class="BoundingBox" stroke="none" fill="none" x="3702" y="3158" width="988" height="489"/>
        <path fill="rgb(0,0,0)" stroke="none" d="M 4196,3645 L 3703,3645 3703,3159 4688,3159 4688,3645 4196,3645 Z"/>
        <path fill="none" stroke="rgb(0,0,0)" d="M 4196,3645 L 3703,3645 3703,3159 4688,3159 4688,3645 4196,3645 Z"/>
       </g>
      </g>
      <g class="com.sun.star.drawing.CustomShape">
       <g id="id24">
        <rect class="BoundingBox" stroke="none" fill="none" x="3323" y="3158" width="253" height="489"/>
        <path fill="rgb(0,0,0)" stroke="none" d="M 3449,3645 L 3324,3645 3324,3159 3574,3159 3574,3645 3449,3645 Z"/>
        <path fill="none" stroke="rgb(0,0,0)" d="M 3449,3645 L 3324,3645 3324,3159 3574,3159 3574,3645 3449,3645 Z"/>
       </g>
      </g>
      <g class="com.sun.star.drawing.ClosedBezierShape">
       <g id="id25">
        <rect class="BoundingBox" stroke="none" fill="none" x="3723" y="3915" width="3231" height="5189"/>
        <path fill="rgb(0,0,0)" stroke="none" d="M 6952,5823 C 6952,5187 6952,4552 6952,3916 5876,3916 4800,3916 3724,3916 3724,5645 3724,7373 3724,9102 3834,8992 3943,8883 4053,8773 4053,7737 4053,6702 4053,5666 4052,4888 4778,4406 5138,4331 5251,4304 5265,4282 5331,4231 5366,4282 5516,4334 5592,4358 6207,4512 6781,5344 6738,6049 6930,5845 6766,6025 6952,5823 Z"/>
        <path fill="none" stroke="rgb(0,0,0)" d="M 6952,5823 L 6952,3916 3724,3916 3724,9102 4053,8773 4053,5666 C 4052,4888 4778,4406 5138,4331 5251,4304 5265,4282 5331,4231 5366,4282 5516,4334 5592,4358 6207,4512 6781,5344 6738,6049 6930,5845 6766,6025 6952,5823 Z"/>
       </g>
      </g>
      <g class="com.sun.star.drawing.ClosedBezierShape">
       <g id="id26">
        <rect class="BoundingBox" stroke="none" fill="none" x="4908" y="5010" width="933" height="2860"/>
        <path fill="rgb(0,0,0)" stroke="none" d="M 5509,7276 C 5509,6743 5509,6209 5509,5676 5509,5534 5419,5483 5374,5386 5330,5481 5235,5521 5243,5672 5243,6295 5243,6918 5243,7541 5132,7650 5020,7759 4909,7868 4909,7095 4909,6322 4909,5549 4913,5305 5162,5085 5378,5011 5623,5113 5843,5309 5839,5554 5839,6013 5839,6471 5839,6930 5729,7045 5619,7161 5509,7276 Z"/>
        <path fill="none" stroke="rgb(0,0,0)" d="M 5509,7276 L 5509,5676 C 5509,5534 5419,5483 5374,5386 5330,5481 5235,5521 5243,5672 L 5243,7541 C 5132,7650 5020,7759 4909,7868 L 4909,5549 C 4913,5305 5162,5085 5378,5011 5623,5113 5843,5309 5839,5554 L 5839,6930 C 5729,7045 5619,7161 5509,7276 Z"/>
       </g>
      </g>
      <g class="com.sun.star.drawing.ClosedBezierShape">
       <g id="id27">
        <rect class="BoundingBox" stroke="none" fill="none" x="4295" y="4508" width="2142" height="3987"/>
        <path fill="rgb(0,0,0)" stroke="none" d="M 6435,6346 C 6435,6145 6435,5943 6435,5742 6443,5145 5990,4729 5313,4509 4558,4778 4309,5068 4296,5860 4296,6738 4296,7615 4296,8493 4434,8355 4571,8218 4709,8080 4709,7257 4709,6434 4709,5611 4709,5207 5026,4984 5324,4821 5690,4979 6064,5300 6072,5753 6072,6073 6072,6393 6072,6713 6193,6591 6314,6468 6435,6346 Z"/>
        <path fill="none" stroke="rgb(0,0,0)" d="M 6435,6346 L 6435,5742 C 6443,5145 5990,4729 5313,4509 4558,4778 4309,5068 4296,5860 L 4296,8493 4709,8080 4709,5611 C 4709,5207 5026,4984 5324,4821 5690,4979 6064,5300 6072,5753 L 6072,6713 C 6193,6591 6314,6468 6435,6346 Z"/>
       </g>
      </g>
      <g class="com.sun.star.drawing.ClosedBezierShape">
       <g id="id28">
        <rect class="BoundingBox" stroke="none" fill="none" x="4908" y="5011" width="933" height="2860"/>
        <path fill="rgb(0,0,0)" stroke="none" d="M 5509,7277 C 5509,6744 5509,6210 5509,5677 5509,5535 5419,5484 5374,5387 5330,5482 5235,5522 5243,5673 5243,6296 5243,6919 5243,7542 5132,7651 5020,7760 4909,7869 4909,7096 4909,6323 4909,5550 4913,5306 5162,5086 5378,5012 5623,5114 5843,5310 5839,5555 5839,6014 5839,6472 5839,6931 5729,7046 5619,7162 5509,7277 Z"/>
        <path fill="none" stroke="rgb(0,0,0)" d="M 5509,7277 L 5509,5677 C 5509,5535 5419,5484 5374,5387 5330,5482 5235,5522 5243,5673 L 5243,7542 C 5132,7651 5020,7760 4909,7869 L 4909,5550 C 4913,5306 5162,5086 5378,5012 5623,5114 5843,5310 5839,5555 L 5839,6931 C 5729,7046 5619,7162 5509,7277 Z"/>
       </g>
      </g>
      <g class="com.sun.star.drawing.ClosedBezierShape">
       <g id="id29">
        <rect class="BoundingBox" stroke="none" fill="none" x="4312" y="15212" width="238" height="425"/>
        <path fill="rgb(0,0,0)" stroke="none" d="M 4544,15474 C 4560,15414 4529,15182 4494,15217 4415,15295 4327,15421 4313,15620 4313,15685 4523,15533 4544,15474 Z"/>
        <path fill="none" stroke="rgb(0,0,0)" d="M 4544,15474 C 4560,15414 4529,15182 4494,15217 4415,15295 4327,15421 4313,15620 4313,15685 4523,15533 4544,15474 Z"/>
       </g>
      </g>
      <g class="com.sun.star.drawing.ClosedBezierShape">
       <g id="id30">
        <rect class="BoundingBox" stroke="none" fill="none" x="7290" y="3832" width="1156" height="1157"/>
        <path fill="rgb(0,0,0)" stroke="none" d="M 8444,4350 L 8321,4309 C 8313,4286 8304,4265 8294,4244 L 8385,4062 8284,3961 8102,4052 C 8082,4042 8060,4033 8037,4025 L 7974,3833 7830,3833 7766,4025 C 7744,4033 7722,4042 7702,4052 L 7520,3961 7419,4062 7510,4244 C 7499,4264 7490,4286 7483,4309 L 7291,4372 7291,4516 7482,4579 C 7490,4602 7499,4624 7510,4645 L 7419,4826 7520,4927 7701,4836 C 7722,4847 7744,4856 7767,4864 L 7807,4987 8444,4350 Z M 7705,4558 C 7685,4524 7674,4484 7674,4445 7674,4404 7685,4365 7705,4331 7725,4296 7753,4267 7788,4248 7822,4227 7862,4217 7901,4217 7942,4217 7981,4227 8015,4248 8050,4267 8079,4296 8098,4331 8119,4365 8129,4404 8129,4445 8129,4484 8119,4524 8098,4558 8079,4593 8050,4621 8015,4641 7981,4661 7942,4672 7901,4672 7862,4672 7822,4661 7788,4641 7753,4621 7725,4593 7705,4558 Z"/>
        <path fill="none" stroke="rgb(0,0,0)" d="M 8444,4350 L 8321,4309 C 8313,4286 8304,4265 8294,4244 L 8385,4062 8284,3961 8102,4052 C 8082,4042 8060,4033 8037,4025 L 7974,3833 7830,3833 7766,4025 C 7744,4033 7722,4042 7702,4052 L 7520,3961 7419,4062 7510,4244 C 7499,4264 7490,4286 7483,4309 L 7291,4372 7291,4516 7482,4579 C 7490,4602 7499,4624 7510,4645 L 7419,4826 7520,4927 7701,4836 C 7722,4847 7744,4856 7767,4864 L 7807,4987 8444,4350 Z"/>
        <path fill="none" stroke="rgb(0,0,0)" d="M 7705,4558 C 7685,4524 7674,4484 7674,4445 7674,4404 7685,4365 7705,4331 7725,4296 7753,4267 7788,4248 7822,4227 7862,4217 7901,4217 7942,4217 7981,4227 8015,4248 8050,4267 8079,4296 8098,4331 8119,4365 8129,4404 8129,4445 8129,4484 8119,4524 8098,4558 8079,4593 8050,4621 8015,4641 7981,4661 7942,4672 7901,4672 7862,4672 7822,4661 7788,4641 7753,4621 7725,4593 7705,4558 Z"/>
       </g>
      </g>
      <g class="com.sun.star.drawing.ClosedBezierShape">
       <g id="id31">
        <rect class="BoundingBox" stroke="none" fill="none" x="7263" y="15702" width="1225" height="1225"/>
        <path fill="rgb(0,0,0)" stroke="none" d="M 7807,15703 L 7803,15703 7739,15895 C 7717,15903 7695,15912 7675,15922 L 7493,15831 7392,15932 7483,16114 C 7472,16134 7463,16156 7456,16179 L 7264,16242 7264,16386 7455,16449 C 7463,16472 7472,16494 7483,16515 L 7392,16696 7493,16797 7674,16706 C 7695,16717 7717,16726 7740,16734 L 7803,16925 7947,16925 8010,16733 C 8033,16726 8055,16717 8075,16706 L 8257,16797 8358,16696 8267,16514 C 8277,16494 8286,16472 8294,16450 L 8486,16386 8486,16382 7807,15703 Z M 7678,16428 C 7658,16394 7647,16354 7647,16315 7647,16274 7658,16235 7678,16201 7698,16166 7726,16137 7761,16118 7795,16097 7835,16087 7874,16087 7915,16087 7954,16097 7988,16118 8023,16137 8052,16166 8071,16201 8092,16235 8102,16274 8102,16315 8102,16354 8092,16394 8071,16428 8052,16463 8023,16491 7988,16511 7954,16531 7915,16542 7874,16542 7835,16542 7795,16531 7761,16511 7726,16491 7698,16463 7678,16428 Z"/>
        <path fill="none" stroke="rgb(0,0,0)" d="M 7807,15703 L 7803,15703 7739,15895 C 7717,15903 7695,15912 7675,15922 L 7493,15831 7392,15932 7483,16114 C 7472,16134 7463,16156 7456,16179 L 7264,16242 7264,16386 7455,16449 C 7463,16472 7472,16494 7483,16515 L 7392,16696 7493,16797 7674,16706 C 7695,16717 7717,16726 7740,16734 L 7803,16925 7947,16925 8010,16733 C 8033,16726 8055,16717 8075,16706 L 8257,16797 8358,16696 8267,16514 C 8277,16494 8286,16472 8294,16450 L 8486,16386 8486,16382 7807,15703 Z"/>
        <path fill="none" stroke="rgb(0,0,0)" d="M 7678,16428 C 7658,16394 7647,16354 7647,16315 7647,16274 7658,16235 7678,16201 7698,16166 7726,16137 7761,16118 7795,16097 7835,16087 7874,16087 7915,16087 7954,16097 7988,16118 8023,16137 8052,16166 8071,16201 8092,16235 8102,16274 8102,16315 8102,16354 8092,16394 8071,16428 8052,16463 8023,16491 7988,16511 7954,16531 7915,16542 7874,16542 7835,16542 7795,16531 7761,16511 7726,16491 7698,16463 7678,16428 Z"/>
       </g>
      </g>
      <g class="com.sun.star.drawing.ClosedBezierShape">
       <g id="id32">
        <rect class="BoundingBox" stroke="none" fill="none" x="6098" y="15213" width="238" height="425"/>
        <path fill="rgb(0,0,0)" stroke="none" d="M 6103,15475 C 6087,15415 6118,15183 6153,15218 6232,15296 6320,15422 6334,15621 6334,15686 6124,15534 6103,15475 Z"/>
        <path fill="none" stroke="rgb(0,0,0)" d="M 6103,15475 C 6087,15415 6118,15183 6153,15218 6232,15296 6320,15422 6334,15621 6334,15686 6124,15534 6103,15475 Z"/>
       </g>
      </g>
      <g class="com.sun.star.drawing.ClosedBezierShape">
       <g id="id33">
        <rect class="BoundingBox" stroke="none" fill="none" x="4645" y="14584" width="1363" height="1200"/>
        <path fill="rgb(0,0,0)" stroke="none" d="M 5321,15376 C 5307,15376 5291,15373 5275,15369 5259,15365 5242,15359 5224,15351 5189,15336 5153,15316 5121,15292 5088,15268 5059,15241 5038,15215 5027,15201 5018,15188 5012,15175 5009,15169 5007,15163 5005,15156 5004,15150 5003,15144 5003,15138 5003,15132 5004,15126 5005,15119 5007,15113 5010,15107 5013,15100 5020,15088 5029,15076 5041,15064 5065,15039 5097,15015 5132,14990 5166,14965 5204,14938 5238,14909 5272,14880 5302,14849 5323,14814 L 5324,14814 5325,14814 5326,14814 C 5326,14815 5327,14815 5327,14815 5328,14815 5328,14815 5329,14815 5350,14850 5380,14881 5414,14910 5448,14939 5485,14966 5520,14991 5555,15016 5587,15040 5610,15065 5622,15077 5632,15089 5638,15101 5642,15108 5644,15114 5646,15120 5648,15127 5649,15133 5649,15139 5649,15145 5648,15151 5646,15157 5644,15164 5642,15170 5639,15176 5633,15189 5625,15202 5614,15216 5593,15242 5564,15269 5531,15293 5498,15317 5462,15337 5427,15352 5410,15360 5393,15366 5377,15370 5360,15374 5345,15377 5331,15377 5330,15377 5330,15377 5329,15377 5329,15376 5329,15376 5328,15376 L 5327,15377 C 5326,15377 5326,15377 5326,15377 L 5325,15376 C 5324,15376 5324,15375 5323,15375 L 5323,15376 C 5322,15376 5321,15376 5321,15376 Z M 5327,14584 C 5326,14584 5325,14584 5325,14584 5324,14584 5324,14584 5324,14584 5225,14610 5134,14650 5052,14699 4970,14749 4897,14808 4837,14872 4777,14937 4729,15008 4696,15081 4679,15117 4667,15154 4658,15191 4649,15228 4645,15265 4645,15301 4645,15319 4646,15337 4648,15355 L 4649,15356 C 4649,15357 4650,15357 4650,15358 4651,15358 4651,15358 4652,15358 L 4653,15358 C 4727,15336 4809,15321 4881,15321 4918,15321 4952,15325 4981,15333 4995,15337 5009,15343 5021,15349 5032,15356 5043,15364 5051,15373 5053,15375 5055,15377 5055,15379 5056,15381 5057,15383 5057,15386 5057,15388 5056,15391 5055,15394 5054,15397 5052,15400 5050,15403 5046,15410 5039,15417 5031,15425 5015,15440 4992,15455 4966,15470 4914,15501 4849,15530 4799,15546 4798,15546 4798,15546 4798,15546 4798,15547 4797,15547 4797,15548 4796,15548 4796,15549 4796,15550 4796,15550 4796,15551 4797,15551 L 4797,15552 C 4865,15628 4932,15705 5000,15781 5000,15781 5001,15781 5001,15782 5002,15782 5002,15782 5003,15782 5003,15782 5004,15782 5005,15782 5005,15781 5005,15781 5006,15781 5052,15718 5100,15665 5151,15624 5177,15603 5204,15586 5233,15571 5261,15557 5291,15546 5324,15539 L 5325,15539 C 5325,15538 5325,15538 5326,15538 5326,15539 5327,15539 5327,15540 L 5328,15540 C 5360,15547 5390,15558 5419,15572 5447,15587 5474,15604 5500,15625 5552,15666 5599,15719 5646,15782 5646,15782 5647,15782 5647,15783 5648,15783 5648,15783 5649,15783 5649,15783 5650,15783 5651,15783 5651,15782 5651,15782 5651,15782 5719,15706 5786,15629 5854,15553 5855,15553 5855,15552 5855,15552 L 5855,15551 C 5855,15550 5855,15549 5855,15549 5855,15548 5854,15548 5854,15547 5853,15547 5853,15547 5853,15547 5802,15531 5737,15502 5685,15471 5659,15456 5637,15441 5620,15426 5612,15418 5606,15411 5601,15404 5599,15401 5598,15398 5597,15395 5595,15392 5595,15389 5595,15387 5595,15384 5595,15382 5596,15380 5597,15378 5598,15376 5600,15374 5609,15365 5619,15357 5631,15350 5643,15344 5656,15338 5671,15334 5700,15326 5734,15322 5770,15322 5842,15322 5924,15337 5999,15359 L 6000,15359 C 6000,15359 6001,15359 6002,15359 6002,15358 6003,15358 6003,15357 L 6003,15356 C 6006,15338 6007,15320 6007,15302 6007,15266 6002,15229 5994,15192 5985,15155 5972,15118 5956,15082 5923,15009 5875,14938 5815,14873 5755,14809 5682,14750 5600,14700 5518,14651 5426,14611 5328,14585 L 5327,14585 5327,14584 Z"/>
       </g>
      </g>
      <g class="com.sun.star.drawing.ClosedBezierShape">
       <g id="id34">
        <rect class="BoundingBox" stroke="none" fill="none" x="3759" y="13294" width="3217" height="5000"/>
        <path fill="rgb(0,0,0)" stroke="none" d="M 5369,14299 L 5369,14304 C 5596,14531 5986,14616 6197,14890 6483,15286 6683,15715 6752,16201 6253,15515 5672,15745 5369,16206 L 5369,16213 C 5368,16212 5367,16210 5366,16209 5366,16210 5365,16212 5364,16213 L 5364,16206 C 5061,15745 4480,15515 3981,16201 4050,15715 4250,15286 4536,14890 4747,14616 5137,14531 5364,14304 L 5364,14299 C 5365,14299 5366,14300 5366,14301 5367,14300 5368,14299 5369,14299 Z M 6974,18292 L 6974,14924 5359,13295 3760,15208 3760,18259 C 3861,18180 3963,18100 4064,18021 L 4064,16575 C 4064,16405 4248,16360 4315,16208 4370,16339 4558,16405 4554,16524 L 4554,17685 C 4640,17616 4725,17547 4811,17478 L 4799,16479 C 4807,16360 4618,16122 4528,15943 4958,15886 5227,16311 5223,16625 5217,16845 5212,17065 5206,17285 L 5490,17285 C 5492,17065 5495,16845 5497,16625 5497,16311 5860,15903 6264,15924 6154,16117 5937,16372 5935,16504 L 5935,17537 C 6027,17606 6120,17674 6212,17743 L 6212,16524 C 6211,16405 6374,16360 6423,16238 6497,16364 6697,16438 6697,16540 6697,17056 6696,17556 6696,18072 6789,18145 6881,18219 6974,18292 Z"/>
        <path fill="none" stroke="rgb(0,0,0)" d="M 5369,14299 L 5369,14304 C 5596,14531 5986,14616 6197,14890 6483,15286 6683,15715 6752,16201 6253,15515 5672,15745 5369,16206 L 5369,16213 C 5368,16212 5367,16210 5366,16209 5366,16210 5365,16212 5364,16213 L 5364,16206 C 5061,15745 4480,15515 3981,16201 4050,15715 4250,15286 4536,14890 4747,14616 5137,14531 5364,14304 L 5364,14299 C 5365,14299 5366,14300 5366,14301 5367,14300 5368,14299 5369,14299 Z"/>
        <path fill="none" stroke="rgb(0,0,0)" d="M 6974,18292 L 6974,14924 5359,13295 3760,15208 3760,18259 C 3861,18180 3963,18100 4064,18021 L 4064,16575 C 4064,16405 4248,16360 4315,16208 4370,16339 4558,16405 4554,16524 L 4554,17685 C 4640,17616 4725,17547 4811,17478 L 4799,16479 C 4807,16360 4618,16122 4528,15943 4958,15886 5227,16311 5223,16625 5217,16845 5212,17065 5206,17285 L 5490,17285 C 5492,17065 5495,16845 5497,16625 5497,16311 5860,15903 6264,15924 6154,16117 5937,16372 5935,16504 L 5935,17537 C 6027,17606 6120,17674 6212,17743 L 6212,16524 C 6211,16405 6374,16360 6423,16238 6497,16364 6697,16438 6697,16540 6697,17056 6696,17556 6696,18072 6789,18145 6881,18219 6974,18292 Z"/>
       </g>
      </g>
      <g class="com.sun.star.drawing.ClosedBezierShape">
       <g id="id35">
        <rect class="BoundingBox" stroke="none" fill="none" x="15838" y="11701" width="1435" height="3211"/>
        <path fill="rgb(0,0,0)" stroke="none" d="M 15839,13148 C 16319,12613 16791,12237 17271,11702 17271,12771 17271,13841 17271,14910 16791,14375 16319,13683 15839,13148 Z"/>
        <path fill="none" stroke="rgb(0,0,0)" d="M 15839,13148 C 16319,12613 16791,12237 17271,11702 L 17271,14910 C 16791,14375 16319,13683 15839,13148 Z"/>
       </g>
      </g>
      <g class="com.sun.star.drawing.ClosedBezierShape">
       <g id="id36">
        <rect class="BoundingBox" stroke="none" fill="none" x="3759" y="11701" width="1435" height="3211"/>
        <path fill="rgb(0,0,0)" stroke="none" d="M 5192,13148 C 4712,12613 4240,12237 3760,11702 3760,12771 3760,13841 3760,14910 4240,14375 4712,13683 5192,13148 Z"/>
        <path fill="none" stroke="rgb(0,0,0)" d="M 5192,13148 C 4712,12613 4240,12237 3760,11702 L 3760,14910 C 4240,14375 4712,13683 5192,13148 Z"/>
       </g>
      </g>
      <g class="com.sun.star.drawing.ClosedBezierShape">
       <g id="id37">
        <rect class="BoundingBox" stroke="none" fill="none" x="2836" y="2707" width="15277" height="15277"/>
        <path fill="rgb(0,0,0)" stroke="none" d="M 11498,6154 C 11532,6186 11560,6219 11583,6254 L 11583,5426 11584,5427 11584,5037 11583,5036 11583,4727 11304,4436 11304,4757 11097,4550 11097,4221 10818,3931 10818,4271 10626,4079 10626,3731 10476,3575 10347,3712 10347,4054 10126,4275 10126,3948 9847,4244 9847,4554 9647,4754 9647,4457 9369,4753 9369,6119 9368,6119 9368,6240 C 9389,6210 9414,6181 9443,6154 9499,6100 9567,6052 9647,6009 L 9647,5144 9847,4944 9847,5923 C 9857,5920 9867,5916 9877,5913 9956,5888 10040,5868 10126,5853 L 10126,4665 10347,4444 10347,5829 C 10388,5826 10429,5825 10471,5825 10523,5825 10575,5827 10626,5831 L 10626,4469 10818,4661 10818,5854 C 10903,5868 10986,5888 11064,5913 11075,5917 11086,5920 11097,5924 L 11097,4940 11304,5147 11304,6015 C 11379,6056 11445,6103 11498,6154 Z M 16502,10345 L 12195,14652 12195,15043 16893,10345 12195,5648 12195,6007 12164,6007 16502,10345 Z M 11583,15264 L 11583,14489 C 11562,14519 11537,14548 11508,14575 11452,14629 11384,14677 11304,14720 L 11304,15543 11104,15743 11104,14806 C 11094,14809 11084,14813 11074,14816 10995,14841 10911,14861 10825,14876 L 10825,16022 10604,16243 10604,14900 C 10563,14903 10522,14904 10481,14904 10428,14904 10376,14902 10325,14898 L 10325,16224 10133,16032 10133,14875 C 10048,14861 9965,14841 9887,14816 9876,14812 9865,14809 9854,14805 L 9854,15753 9647,15546 9647,14714 C 9572,14673 9506,14626 9453,14575 9419,14543 9392,14511 9369,14477 L 9369,16003 9647,16293 9647,15937 9854,16144 9854,16508 10133,16798 10133,16423 10325,16615 10325,16998 10475,17154 10604,17017 10604,16634 10825,16413 10825,16781 11104,16485 11104,16134 11304,15934 11304,16272 11583,15975 11583,15655 11584,15654 11584,15263 11583,15264 Z M 4446,10345 L 8758,6033 8758,5643 4056,10345 8758,15048 8758,14657 4446,10345 Z M 11695,11050 C 11819,10836 11884,10593 11884,10346 11884,10098 11819,9855 11695,9641 11571,9426 11394,9249 11179,9125 10965,9001 10722,8936 10474,8936 10227,8936 9984,9001 9770,9125 9555,9249 9378,9426 9254,9641 9130,9855 9065,10098 9065,10346 9065,10593 9130,10836 9254,11050 9378,11265 9555,11442 9770,11566 9984,11690 10227,11755 10475,11755 10722,11755 10965,11690 11179,11566 11394,11442 11571,11265 11695,11050 Z M 10253,8712 L 10696,8712 10696,8155 10253,8155 10253,8712 Z M 10253,12534 L 10696,12534 10696,11977 10253,11977 10253,12534 Z M 12107,10123 L 12107,10566 12664,10566 12664,10123 12107,10123 Z M 8285,10123 L 8285,10566 8842,10566 8842,10123 8285,10123 Z M 11786,11342 L 11473,11655 11867,12049 12180,11736 11786,11342 Z M 9083,8640 L 8770,8953 9164,9347 9477,9034 9083,8640 Z M 9477,11656 L 9164,11343 8770,11737 9083,12050 9477,11656 Z M 12179,8953 L 11866,8640 11472,9034 11785,9347 12179,8953 Z M 14748,11492 L 14971,11406 14971,9284 14748,9198 14748,11492 Z M 15251,10495 L 15251,10757 15674,10757 15954,10354 15674,9952 15251,9952 15251,10213 15535,10213 C 15560,10213 15584,10220 15606,10232 15627,10244 15645,10262 15657,10284 15669,10305 15676,10329 15676,10354 15676,10379 15669,10403 15657,10425 15645,10446 15627,10464 15606,10476 15584,10488 15560,10495 15535,10495 L 15534,10495 15251,10495 Z M 10015,6536 L 9852,7325 C 9762,7343 9672,7366 9584,7393 L 9394,7053 9061,7185 9155,7558 C 9079,7594 9005,7633 8933,7674 8897,7695 8862,7716 8827,7738 L 8164,7303 7514,7953 7936,8594 C 7889,8662 7845,8732 7803,8804 7794,8820 7785,8837 7776,8853 L 7440,8758 7298,9087 7588,9260 C 7539,9389 7499,9522 7468,9656 L 6747,9805 6747,10724 7434,10866 C 7454,10981 7480,11094 7512,11205 L 7264,11344 7396,11677 7661,11610 C 7703,11706 7751,11799 7803,11889 7828,11932 7854,11975 7881,12016 L 7514,12575 8164,13225 8702,12871 C 8776,12924 8853,12973 8933,13019 8966,13038 8999,13056 9033,13074 L 8969,13299 9298,13441 9416,13244 C 9570,13301 9728,13345 9889,13376 L 10016,13991 10935,13991 11062,13376 C 11191,13351 11319,13317 11444,13276 L 11555,13475 11888,13343 11831,13118 C 11895,13087 11957,13054 12018,13019 12097,12973 12174,12924 12248,12872 L 12786,13225 13436,12575 13069,12018 C 13096,11976 13123,11933 13148,11889 13184,11826 13218,11762 13250,11696 L 13510,11770 13652,11441 13411,11297 C 13457,11155 13492,11011 13517,10865 L 14202,10723 14202,9804 13483,9655 C 13459,9551 13429,9448 13394,9346 L 13686,9183 13554,8850 13219,8934 C 13196,8890 13172,8847 13148,8804 13106,8732 13062,8662 13015,8594 L 13436,7953 12786,7303 12124,7738 C 12089,7716 12054,7695 12018,7674 11972,7647 11924,7622 11877,7597 L 11981,7229 11652,7087 11453,7420 C 11336,7381 11217,7349 11097,7324 L 10934,6536 10015,6536 Z M 12767,11670 C 12535,12072 12201,12406 11799,12638 11396,12871 10940,12993 10476,12993 10011,12993 9555,12871 9152,12638 8750,12406 8416,12072 8184,11670 7951,11267 7829,10811 7829,10347 7829,9882 7951,9426 8184,9023 8416,8621 8750,8287 9152,8055 9555,7822 10011,7700 10475,7700 10940,7700 11396,7822 11799,8055 12201,8287 12535,8621 12767,9023 13000,9426 13122,9882 13122,10346 13122,10811 13000,11267 12767,11670 Z M 6167,11493 L 6167,9199 5944,9285 5944,11407 6167,11493 Z M 5664,10496 L 5381,10496 5380,10496 C 5355,10496 5331,10489 5310,10477 5288,10465 5270,10447 5258,10426 5246,10404 5239,10380 5239,10355 5239,10330 5246,10306 5258,10285 5270,10263 5288,10245 5310,10233 5331,10221 5355,10214 5380,10214 L 5664,10214 5664,9953 5241,9953 4961,10355 5241,10758 5664,10758 5664,10496 Z M 14262,6838 C 14262,6802 14253,6768 14235,6737 14218,6707 14192,6681 14162,6664 14131,6646 14097,6637 14062,6637 14026,6637 13992,6646 13961,6664 13931,6681 13905,6707 13888,6737 13870,6768 13861,6802 13861,6838 13861,6873 13870,6907 13888,6938 13905,6968 13931,6994 13961,7011 13992,7029 14026,7038 14062,7038 14097,7038 14131,7029 14162,7011 14192,6994 14218,6968 14235,6938 14253,6907 14262,6873 14262,6838 Z M 14263,13802 C 14263,13766 14254,13732 14236,13701 14219,13671 14193,13645 14163,13628 14132,13610 14098,13601 14063,13601 14027,13601 13993,13610 13962,13628 13932,13645 13906,13671 13889,13701 13871,13732 13862,13766 13862,13802 13862,13837 13871,13871 13889,13902 13906,13932 13932,13958 13962,13975 13993,13993 14027,14002 14063,14002 14098,14002 14132,13993 14163,13975 14193,13958 14219,13932 14236,13902 14254,13871 14263,13837 14263,13802 Z M 6653,6839 C 6653,6874 6662,6908 6680,6939 6697,6969 6723,6995 6753,7012 6784,7030 6818,7039 6854,7039 6889,7039 6923,7030 6954,7012 6984,6995 7010,6969 7027,6939 7045,6908 7054,6874 7054,6839 7054,6803 7045,6769 7027,6738 7010,6708 6984,6682 6954,6665 6923,6647 6889,6638 6854,6638 6818,6638 6784,6647 6753,6665 6723,6682 6697,6708 6680,6738 6662,6769 6653,6803 6653,6839 Z M 6652,13803 C 6652,13838 6661,13872 6679,13903 6696,13933 6722,13959 6752,13976 6783,13994 6817,14003 6853,14003 6888,14003 6922,13994 6953,13976 6983,13959 7009,13933 7026,13903 7044,13872 7053,13838 7053,13803 7053,13767 7044,13733 7026,13702 7009,13672 6983,13646 6953,13629 6922,13611 6888,13602 6853,13602 6817,13602 6783,13611 6752,13629 6722,13646 6696,13672 6679,13702 6661,13733 6652,13767 6652,13803 Z M 10474,2708 L 18111,10345 10474,17982 2837,10345 10474,2708 Z"/>
        <path fill="none" stroke="rgb(0,0,0)" d="M 11498,6154 C 11532,6186 11560,6219 11583,6254 L 11583,5426 11584,5427 11584,5037 11583,5036 11583,4727 11304,4436 11304,4757 11097,4550 11097,4221 10818,3931 10818,4271 10626,4079 10626,3731 10476,3575 10347,3712 10347,4054 10126,4275 10126,3948 9847,4244 9847,4554 9647,4754 9647,4457 9369,4753 9369,6119 9368,6119 9368,6240 C 9389,6210 9414,6181 9443,6154 9499,6100 9567,6052 9647,6009 L 9647,5144 9847,4944 9847,5923 C 9857,5920 9867,5916 9877,5913 9956,5888 10040,5868 10126,5853 L 10126,4665 10347,4444 10347,5829 C 10388,5826 10429,5825 10471,5825 10523,5825 10575,5827 10626,5831 L 10626,4469 10818,4661 10818,5854 C 10903,5868 10986,5888 11064,5913 11075,5917 11086,5920 11097,5924 L 11097,4940 11304,5147 11304,6015 C 11379,6056 11445,6103 11498,6154 Z"/>
        <path fill="none" stroke="rgb(0,0,0)" d="M 16502,10345 L 12195,14652 12195,15043 16893,10345 12195,5648 12195,6007 12164,6007 16502,10345 Z"/>
        <path fill="none" stroke="rgb(0,0,0)" d="M 11583,15264 L 11583,14489 C 11562,14519 11537,14548 11508,14575 11452,14629 11384,14677 11304,14720 L 11304,15543 11104,15743 11104,14806 C 11094,14809 11084,14813 11074,14816 10995,14841 10911,14861 10825,14876 L 10825,16022 10604,16243 10604,14900 C 10563,14903 10522,14904 10481,14904 10428,14904 10376,14902 10325,14898 L 10325,16224 10133,16032 10133,14875 C 10048,14861 9965,14841 9887,14816 9876,14812 9865,14809 9854,14805 L 9854,15753 9647,15546 9647,14714 C 9572,14673 9506,14626 9453,14575 9419,14543 9392,14511 9369,14477 L 9369,16003 9647,16293 9647,15937 9854,16144 9854,16508 10133,16798 10133,16423 10325,16615 10325,16998 10475,17154 10604,17017 10604,16634 10825,16413 10825,16781 11104,16485 11104,16134 11304,15934 11304,16272 11583,15975 11583,15655 11584,15654 11584,15263 11583,15264 Z"/>
        <path fill="none" stroke="rgb(0,0,0)" d="M 4446,10345 L 8758,6033 8758,5643 4056,10345 8758,15048 8758,14657 4446,10345 Z"/>
        <path fill="none" stroke="rgb(0,0,0)" d="M 11695,11050 C 11819,10836 11884,10593 11884,10346 11884,10098 11819,9855 11695,9641 11571,9426 11394,9249 11179,9125 10965,9001 10722,8936 10474,8936 10227,8936 9984,9001 9770,9125 9555,9249 9378,9426 9254,9641 9130,9855 9065,10098 9065,10346 9065,10593 9130,10836 9254,11050 9378,11265 9555,11442 9770,11566 9984,11690 10227,11755 10475,11755 10722,11755 10965,11690 11179,11566 11394,11442 11571,11265 11695,11050 Z"/>
        <path fill="none" stroke="rgb(0,0,0)" d="M 10253,8712 L 10696,8712 10696,8155 10253,8155 10253,8712 Z"/>
        <path fill="none" stroke="rgb(0,0,0)" d="M 10253,12534 L 10696,12534 10696,11977 10253,11977 10253,12534 Z"/>
        <path fill="none" stroke="rgb(0,0,0)" d="M 12107,10123 L 12107,10566 12664,10566 12664,10123 12107,10123 Z"/>
        <path fill="none" stroke="rgb(0,0,0)" d="M 8285,10123 L 8285,10566 8842,10566 8842,10123 8285,10123 Z"/>
        <path fill="none" stroke="rgb(0,0,0)" d="M 11786,11342 L 11473,11655 11867,12049 12180,11736 11786,11342 Z"/>
        <path fill="none" stroke="rgb(0,0,0)" d="M 9083,8640 L 8770,8953 9164,9347 9477,9034 9083,8640 Z"/>
        <path fill="none" stroke="rgb(0,0,0)" d="M 9477,11656 L 9164,11343 8770,11737 9083,12050 9477,11656 Z"/>
        <path fill="none" stroke="rgb(0,0,0)" d="M 12179,8953 L 11866,8640 11472,9034 11785,9347 12179,8953 Z"/>
        <path fill="none" stroke="rgb(0,0,0)" d="M 14748,11492 L 14971,11406 14971,9284 14748,9198 14748,11492 Z"/>
        <path fill="none" stroke="rgb(0,0,0)" d="M 15251,10495 L 15251,10757 15674,10757 15954,10354 15674,9952 15251,9952 15251,10213 15535,10213 C 15560,10213 15584,10220 15606,10232 15627,10244 15645,10262 15657,10284 15669,10305 15676,10329 15676,10354 15676,10379 15669,10403 15657,10425 15645,10446 15627,10464 15606,10476 15584,10488 15560,10495 15535,10495 L 15534,10495 15251,10495 Z"/>
        <path fill="none" stroke="rgb(0,0,0)" d="M 10015,6536 L 9852,7325 C 9762,7343 9672,7366 9584,7393 L 9394,7053 9061,7185 9155,7558 C 9079,7594 9005,7633 8933,7674 8897,7695 8862,7716 8827,7738 L 8164,7303 7514,7953 7936,8594 C 7889,8662 7845,8732 7803,8804 7794,8820 7785,8837 7776,8853 L 7440,8758 7298,9087 7588,9260 C 7539,9389 7499,9522 7468,9656 L 6747,9805 6747,10724 7434,10866 C 7454,10981 7480,11094 7512,11205 L 7264,11344 7396,11677 7661,11610 C 7703,11706 7751,11799 7803,11889 7828,11932 7854,11975 7881,12016 L 7514,12575 8164,13225 8702,12871 C 8776,12924 8853,12973 8933,13019 8966,13038 8999,13056 9033,13074 L 8969,13299 9298,13441 9416,13244 C 9570,13301 9728,13345 9889,13376 L 10016,13991 10935,13991 11062,13376 C 11191,13351 11319,13317 11444,13276 L 11555,13475 11888,13343 11831,13118 C 11895,13087 11957,13054 12018,13019 12097,12973 12174,12924 12248,12872 L 12786,13225 13436,12575 13069,12018 C 13096,11976 13123,11933 13148,11889 13184,11826 13218,11762 13250,11696 L 13510,11770 13652,11441 13411,11297 C 13457,11155 13492,11011 13517,10865 L 14202,10723 14202,9804 13483,9655 C 13459,9551 13429,9448 13394,9346 L 13686,9183 13554,8850 13219,8934 C 13196,8890 13172,8847 13148,8804 13106,8732 13062,8662 13015,8594 L 13436,7953 12786,7303 12124,7738 C 12089,7716 12054,7695 12018,7674 11972,7647 11924,7622 11877,7597 L 11981,7229 11652,7087 11453,7420 C 11336,7381 11217,7349 11097,7324 L 10934,6536 10015,6536 Z"/>
        <path fill="none" stroke="rgb(0,0,0)" d="M 12767,11670 C 12535,12072 12201,12406 11799,12638 11396,12871 10940,12993 10476,12993 10011,12993 9555,12871 9152,12638 8750,12406 8416,12072 8184,11670 7951,11267 7829,10811 7829,10347 7829,9882 7951,9426 8184,9023 8416,8621 8750,8287 9152,8055 9555,7822 10011,7700 10475,7700 10940,7700 11396,7822 11799,8055 12201,8287 12535,8621 12767,9023 13000,9426 13122,9882 13122,10346 13122,10811 13000,11267 12767,11670 Z"/>
        <path fill="none" stroke="rgb(0,0,0)" d="M 6167,11493 L 6167,9199 5944,9285 5944,11407 6167,11493 Z"/>
        <path fill="none" stroke="rgb(0,0,0)" d="M 5664,10496 L 5381,10496 5380,10496 C 5355,10496 5331,10489 5310,10477 5288,10465 5270,10447 5258,10426 5246,10404 5239,10380 5239,10355 5239,10330 5246,10306 5258,10285 5270,10263 5288,10245 5310,10233 5331,10221 5355,10214 5380,10214 L 5664,10214 5664,9953 5241,9953 4961,10355 5241,10758 5664,10758 5664,10496 Z"/>
        <path fill="none" stroke="rgb(0,0,0)" d="M 14262,6838 C 14262,6802 14253,6768 14235,6737 14218,6707 14192,6681 14162,6664 14131,6646 14097,6637 14062,6637 14026,6637 13992,6646 13961,6664 13931,6681 13905,6707 13888,6737 13870,6768 13861,6802 13861,6838 13861,6873 13870,6907 13888,6938 13905,6968 13931,6994 13961,7011 13992,7029 14026,7038 14062,7038 14097,7038 14131,7029 14162,7011 14192,6994 14218,6968 14235,6938 14253,6907 14262,6873 14262,6838 Z"/>
        <path fill="none" stroke="rgb(0,0,0)" d="M 14263,13802 C 14263,13766 14254,13732 14236,13701 14219,13671 14193,13645 14163,13628 14132,13610 14098,13601 14063,13601 14027,13601 13993,13610 13962,13628 13932,13645 13906,13671 13889,13701 13871,13732 13862,13766 13862,13802 13862,13837 13871,13871 13889,13902 13906,13932 13932,13958 13962,13975 13993,13993 14027,14002 14063,14002 14098,14002 14132,13993 14163,13975 14193,13958 14219,13932 14236,13902 14254,13871 14263,13837 14263,13802 Z"/>
        <path fill="none" stroke="rgb(0,0,0)" d="M 6653,6839 C 6653,6874 6662,6908 6680,6939 6697,6969 6723,6995 6753,7012 6784,7030 6818,7039 6854,7039 6889,7039 6923,7030 6954,7012 6984,6995 7010,6969 7027,6939 7045,6908 7054,6874 7054,6839 7054,6803 7045,6769 7027,6738 7010,6708 6984,6682 6954,6665 6923,6647 6889,6638 6854,6638 6818,6638 6784,6647 6753,6665 6723,6682 6697,6708 6680,6738 6662,6769 6653,6803 6653,6839 Z"/>
        <path fill="none" stroke="rgb(0,0,0)" d="M 6652,13803 C 6652,13838 6661,13872 6679,13903 6696,13933 6722,13959 6752,13976 6783,13994 6817,14003 6853,14003 6888,14003 6922,13994 6953,13976 6983,13959 7009,13933 7026,13903 7044,13872 7053,13838 7053,13803 7053,13767 7044,13733 7026,13702 7009,13672 6983,13646 6953,13629 6922,13611 6888,13602 6853,13602 6817,13602 6783,13611 6752,13629 6722,13646 6696,13672 6679,13702 6661,13733 6652,13767 6652,13803 Z"/>
        <path fill="none" stroke="rgb(0,0,0)" d="M 10474,2708 L 18111,10345 10474,17982 2837,10345 10474,2708 Z"/>
       </g>
      </g>
     </g>
    </g>
   </g>
  </g>
 </g>
</svg>