<svg xmlns="http://www.w3.org/2000/svg" width="819" height="819" viewBox="0 0 819 819" version="1.1"><path d="M 397.500 61.359 C 385.169 62.940, 383.394 63.841, 381.921 69.266 C 381.289 71.595, 380.634 74.005, 380.466 74.623 C 380.298 75.240, 376.862 76.541, 372.830 77.514 C 338.576 85.779, 306.550 107.729, 287.142 136.243 C 281.762 144.147, 273.397 161.304, 270.104 171.187 C 267.736 178.297, 264 193.770, 264 196.471 C 264 196.633, 261.056 198.683, 257.458 201.028 C 253.859 203.372, 250.484 206.095, 249.958 207.079 C 249.431 208.063, 249 217.925, 249 228.994 L 249 249.119 245.288 253.560 C 243.247 256.002, 240.974 258, 240.237 258 C 239.501 258, 238.254 259.540, 237.468 261.423 C 236.318 264.175, 235.005 265.231, 230.769 266.812 C 225.500 268.777, 225.500 268.777, 225.536 274.389 C 225.555 277.475, 225.668 291.444, 225.786 305.430 L 226 330.860 231.250 332.817 C 236.374 334.728, 236.516 334.889, 237.187 339.524 C 238.013 345.238, 238.387 345.661, 244.058 347.298 C 248.500 348.581, 248.500 348.581, 249.053 355.540 C 249.371 359.539, 250.325 363.590, 251.295 365.062 C 252.947 367.569, 252.914 367.689, 249.742 370.646 C 247.959 372.308, 243.125 376.393, 239 379.724 C 218.313 396.425, 203.508 416.434, 194.399 440 C 191.623 447.181, 191.505 448.159, 191.609 463 C 191.668 471.525, 192.279 487.162, 192.966 497.748 C 193.653 508.335, 193.963 517.654, 193.655 518.458 C 192.831 520.604, 185.271 524.111, 169.633 529.602 C 161.852 532.334, 150.002 537.558, 142.633 541.504 C 127.261 549.737, 128.079 547.286, 134.066 567.160 C 137.306 577.913, 137.964 581.404, 137.461 585.161 C 136.638 591.307, 138.282 593.718, 147.365 599.691 C 151.289 602.271, 157.121 606.373, 160.324 608.807 C 163.527 611.240, 184.452 625.469, 206.824 640.427 C 229.196 655.385, 254.925 672.588, 264 678.656 C 273.075 684.725, 287.250 694.085, 295.500 699.456 C 311.210 709.686, 312.337 710.442, 360.500 743.063 C 390.843 763.616, 407.099 774.656, 416.850 781.335 C 419.793 783.351, 423.043 785, 424.073 785 C 425.102 785, 430.120 782.060, 435.222 778.467 C 450.234 767.896, 517.571 723.370, 561.447 695 C 589.287 676.999, 682.670 613.759, 690.366 607.694 L 694.233 604.648 688.866 601.959 C 685.915 600.480, 677.200 596.908, 669.500 594.021 C 647.440 585.750, 643.397 584.019, 641.059 581.840 C 639.854 580.717, 639.058 579.609, 639.290 579.377 C 639.928 578.739, 674.329 590.293, 683.831 594.338 C 688.413 596.288, 693.254 599.061, 694.588 600.500 L 697.013 603.118 702.068 600.366 C 710.087 596.002, 711.999 593.776, 712.006 588.798 C 712.014 582.374, 713.600 573.875, 717.120 561.377 C 718.857 555.211, 720.021 549.497, 719.707 548.678 C 719.392 547.859, 717.721 546.878, 715.993 546.499 C 714.265 546.119, 711.339 544.481, 709.491 542.858 C 705.960 539.758, 697.620 535.874, 672 525.398 L 656.500 519.060 656.774 512.780 C 656.925 509.326, 657.642 499.525, 658.368 491 C 660.515 465.778, 660.405 452.764, 657.972 444 C 651.659 421.266, 632.466 396.086, 606.689 376.722 C 597.653 369.933, 595.976 368.259, 596.501 366.548 C 596.847 365.422, 597.632 361.001, 598.246 356.724 C 599.272 349.567, 599.566 348.904, 601.931 348.405 C 610.285 346.639, 611.444 345.724, 612.544 340.020 C 613.586 334.616, 613.595 334.607, 618.444 333.369 C 621.116 332.688, 623.677 331.539, 624.135 330.815 C 624.594 330.092, 624.851 316.008, 624.706 299.518 L 624.444 269.536 619.972 267.891 C 615.845 266.372, 615.475 265.947, 615.175 262.385 C 614.791 257.810, 613.581 256.142, 609.371 254.382 C 607.650 253.663, 604.837 251.892, 603.121 250.448 C 600 247.822, 600 247.822, 600 227.085 C 600 206.854, 599.945 206.299, 597.750 204.302 C 596.023 202.732, 590.031 198.637, 586.201 196.409 C 586.037 196.314, 584.630 191.120, 583.074 184.868 C 573.399 145.974, 553.385 117.566, 520.500 96.049 C 504.923 85.857, 490.758 80.027, 470.750 75.574 C 468.448 75.062, 467.998 74.435, 467.985 71.731 C 467.963 66.816, 465.881 63.644, 461.796 62.300 C 456.187 60.455, 409.835 59.777, 397.500 61.359 M 401.514 70.994 C 398.771 71.493, 395.509 72.157, 394.264 72.470 C 392 73.038, 392 73.038, 392 123.662 L 392 174.285 397.833 173.675 C 405.937 172.828, 407 172.274, 407 168.893 C 407 166.840, 407.508 165.973, 408.750 165.906 C 420.970 165.246, 434.312 165.061, 437.552 165.506 C 441.054 165.988, 441.733 166.498, 442.552 169.266 C 443.380 172.064, 444.070 172.569, 448 173.252 C 450.475 173.683, 453.521 173.792, 454.768 173.494 C 457.036 172.953, 457.036 172.953, 456.900 126.726 C 456.743 73.672, 456.670 72.433, 453.654 71.560 C 449.995 70.502, 406.794 70.033, 401.514 70.994 M 407.250 77.650 C 406.545 77.942, 406 79.908, 406 82.164 L 406 86.162 423.919 85.831 C 433.774 85.649, 442.166 85.170, 442.568 84.767 C 442.970 84.364, 442.878 82.564, 442.363 80.767 L 441.427 77.500 424.964 77.317 C 415.909 77.216, 407.938 77.366, 407.250 77.650 M 369.500 90.468 C 360.746 92.378, 344.399 99.891, 332.521 107.463 C 313.583 119.536, 296.213 139.497, 286.533 160.311 C 282.070 169.907, 277.608 184.134, 276.516 192.250 C 275.752 197.936, 276.638 198.225, 283.783 194.621 C 289.525 191.725, 307.439 185.883, 322.434 182.017 C 332.522 179.416, 365.091 175, 374.187 175 C 381.539 175, 381 178.450, 381 131.393 L 381 89 378.250 89.079 C 376.738 89.123, 372.800 89.748, 369.500 90.468 M 407.250 93.662 C 406.549 93.945, 406 95.886, 406 98.083 L 406 102 424.500 102 L 443 102 443 97.500 L 443 93 425.750 93.079 C 416.262 93.122, 407.938 93.385, 407.250 93.662 M 406.667 110.667 C 406.300 111.033, 406 113.320, 406 115.748 L 406 120.162 423.750 119.831 C 433.512 119.649, 441.965 119.196, 442.534 118.825 C 443.102 118.453, 443.392 116.316, 443.179 114.075 L 442.790 110 425.062 110 C 415.311 110, 407.033 110.300, 406.667 110.667 M 413 127.923 C 406.500 128.500, 406.500 128.500, 406.500 132.500 L 406.500 136.500 424.500 136.450 L 442.500 136.400 442.800 132.352 L 443.100 128.304 434.800 127.658 C 425.991 126.972, 423.334 127.005, 413 127.923 M 320.420 131.885 C 318.726 132.918, 316.734 135.228, 315.992 137.019 C 314.845 139.789, 314.860 140.660, 316.096 142.863 C 318.446 147.048, 322.094 148.618, 325.854 147.061 C 329.418 145.584, 333 140.444, 333 136.806 C 333 133.715, 329.141 129.999, 325.936 130.004 C 324.596 130.006, 322.114 130.853, 320.420 131.885 M 406.667 146.667 C 406.300 147.033, 406 149.068, 406 151.189 L 406 155.045 424.250 154.773 L 442.500 154.500 442.807 150.250 L 443.115 146 425.224 146 C 415.384 146, 407.033 146.300, 406.667 146.667 M 299.159 160.601 C 294.653 163.757, 294.087 169.906, 298.105 172.056 C 300.956 173.582, 303.601 172.382, 306.023 168.464 C 308.542 164.387, 307.937 161.307, 304.349 159.943 C 301.295 158.781, 301.860 158.710, 299.159 160.601 M 370.664 186.022 C 328.739 189.093, 286.752 201.062, 269.182 214.950 C 262.072 220.570, 260 224.408, 260 231.957 L 260 238.177 266.388 232.339 C 288.644 211.997, 323.509 202.329, 387 198.892 C 414.741 197.391, 467.562 198.471, 493 201.060 C 532.952 205.127, 565.207 215.759, 580.235 229.817 C 582.856 232.268, 585 233.803, 585 233.229 C 585 231.432, 576.385 223.222, 570.655 219.556 C 565.057 215.975, 544.692 206.661, 535.250 203.364 C 530.031 201.541, 528.405 199.986, 531.750 200.016 C 533.690 200.033, 550.351 203.473, 553.500 204.507 C 555.423 205.138, 555.429 205.105, 553.655 203.652 C 550.600 201.149, 530.204 194.366, 519 192.126 C 490.588 186.446, 482.651 185.847, 431 185.490 C 404.325 185.306, 377.174 185.545, 370.664 186.022 M 496.500 220.952 C 475.268 224.456, 454.887 241.580, 447.884 261.798 C 445.069 269.925, 444.386 284.551, 446.380 294 C 451.398 317.784, 470.079 337.032, 493.391 342.439 C 514.024 347.223, 534.092 342.096, 549.094 328.207 C 557.812 320.135, 564.349 307.770, 566.120 296 C 567.308 288.102, 566.773 274.427, 564.958 266.294 C 560.662 247.042, 542.603 228.631, 522.107 222.608 C 515.437 220.648, 503.156 219.854, 496.500 220.952 M 329.500 221.951 C 312.432 225.662, 294.481 239.674, 286.749 255.321 C 281.647 265.645, 279.997 272.661, 280.015 283.960 C 280.044 302.509, 284.584 313.578, 297.501 326.587 C 308.925 338.092, 320.079 343.175, 337.064 344.615 C 358.029 346.393, 380.716 335.460, 392.496 317.902 C 398.579 308.835, 401.725 300.331, 402.924 289.708 C 404.805 273.043, 400.797 256.903, 391.923 245.400 C 384.652 235.975, 371.483 226.955, 360 223.533 C 353.620 221.632, 335.330 220.683, 329.500 221.951 M 389.052 222.816 C 388.410 223.030, 390.623 225.682, 393.969 228.710 C 400.566 234.680, 407.264 243.519, 411.333 251.623 L 413.905 256.746 424.130 256.623 L 434.355 256.500 438.845 249 C 441.570 244.448, 446.979 237.864, 452.606 232.250 C 461.857 223.020, 461.870 223, 458.601 223 C 456.800 223, 450.865 223.672, 445.413 224.494 C 432.967 226.370, 423.531 226.389, 408.958 224.568 C 393.422 222.627, 390.415 222.362, 389.052 222.816 M 336 235.066 C 323.734 236.899, 316.003 241.073, 306.793 250.837 C 292.583 265.900, 289.262 287.051, 298.163 305.806 C 301.670 313.195, 309.396 321.320, 316.627 325.223 C 326.826 330.728, 342.460 332.522, 353.068 329.404 C 378.561 321.911, 392.900 300.186, 389.198 274.663 C 386.921 258.966, 377.734 246.308, 363.739 239.589 C 357.649 236.665, 346.157 233.711, 342.500 234.129 C 341.950 234.192, 339.025 234.614, 336 235.066 M 497.056 235.026 C 490.444 236.419, 478.822 242.264, 473.958 246.643 C 460.914 258.387, 455.704 278.219, 460.996 295.987 C 465.625 311.529, 480.797 325.620, 497.022 329.444 C 523.507 335.686, 546.931 320.626, 552.667 293.668 C 555.629 279.747, 553.011 266.601, 545.007 255.203 C 536.099 242.519, 523.590 235.293, 509.179 234.508 C 504.956 234.278, 499.500 234.511, 497.056 235.026 M 325 249.301 C 311.043 256.109, 306 265.299, 306 283.927 C 306 295.909, 307.705 301.346, 313.468 307.744 C 318.747 313.606, 326.638 319.395, 327.484 318.027 C 328.317 316.678, 329.807 297.834, 331.004 273.500 C 331.545 262.500, 332.274 251.813, 332.625 249.750 C 332.975 247.688, 332.865 246.029, 332.381 246.065 C 331.896 246.101, 328.575 247.557, 325 249.301 M 482.404 254.944 C 478.804 257.708, 476.669 260.342, 475.130 263.920 C 470.549 274.569, 469.681 288.401, 473.033 297.360 C 475.230 303.231, 481.622 311.236, 485.865 313.430 C 488.500 314.792, 488.500 314.792, 488.576 295.646 C 488.618 285.116, 488.990 270.762, 489.403 263.750 C 490.271 248.994, 490.227 248.939, 482.404 254.944 M 257.169 256.848 C 256.220 257.468, 256.758 257.902, 259.044 258.359 C 263.774 259.305, 268.568 259.159, 267.450 258.103 C 266.019 256.752, 258.687 255.857, 257.169 256.848 M 581.016 266.750 C 581.025 267.163, 580.883 275.664, 580.701 285.643 C 580.433 300.345, 580.061 304.258, 578.737 306.278 C 577.839 307.649, 577.381 309.047, 577.719 309.385 C 578.928 310.594, 590.050 310.040, 590.461 308.750 C 590.680 308.063, 591.043 298.163, 591.268 286.750 L 591.676 266 586.338 266 C 583.402 266, 581.007 266.337, 581.016 266.750 M 258.590 268.868 C 255.680 269.500, 255.680 269.500, 255.678 289.500 L 255.676 309.500 263.338 309.792 C 270.931 310.081, 272.166 309.572, 269.750 307.144 C 268.828 306.217, 268.534 300.910, 268.631 286.944 L 268.762 268 265.131 268.118 C 263.134 268.183, 260.190 268.521, 258.590 268.868 M 240.503 270.640 C 236.258 274.885, 236.122 275.749, 235.920 299.913 C 235.739 321.571, 235.861 323.425, 237.553 324.663 C 238.559 325.398, 240.534 326, 241.941 325.999 C 244.500 325.999, 244.500 325.999, 244.793 301.249 C 245.082 276.878, 244.640 269, 242.984 269 C 242.521 269, 241.405 269.738, 240.503 270.640 M 416.237 280.717 L 416.325 291.673 425.101 291.619 L 433.877 291.565 434.188 281.532 C 434.360 276.015, 434.376 271.301, 434.223 271.057 C 434.071 270.813, 429.942 270.422, 425.047 270.188 L 416.148 269.762 416.237 280.717 M 611.763 277.634 C 610.265 279.938, 609.030 293.258, 608.862 308.916 C 608.768 317.775, 608.921 325.254, 609.202 325.535 C 610.392 326.725, 612.820 324.662, 613.146 322.183 C 613.786 317.331, 612.517 276.474, 611.763 277.634 M 417.210 308.667 C 414.929 309.791, 412.668 312.469, 409.840 317.394 C 397.549 338.801, 391.906 344.827, 378 351.396 C 354.127 362.672, 328.726 364.211, 310.227 355.501 C 302.840 352.023, 293.979 344.221, 285.805 334 C 283.826 331.525, 281.846 329.852, 281.404 330.283 C 279.998 331.653, 282.803 341.923, 286.716 349.739 C 290.871 358.035, 301.228 370.066, 305.720 371.814 C 307.249 372.409, 311.875 373.864, 316 375.046 C 333.348 380.021, 346.994 390.590, 357.998 407.577 C 361.356 412.759, 364.507 417, 365.001 417 C 365.495 417, 367.819 413.288, 370.166 408.750 C 376.407 396.686, 386.885 386.587, 402.503 377.583 C 414.500 370.667, 414.500 370.667, 423.517 370.224 C 432.534 369.782, 432.534 369.782, 441.517 374.477 C 462.377 385.381, 474.245 396.157, 482.971 412.114 C 484.503 414.914, 486.034 416.755, 486.374 416.204 C 488.127 413.368, 490.699 402.932, 489.785 402.367 C 489.230 402.024, 488.383 402.364, 487.902 403.122 C 487.217 404.201, 486.503 403.850, 484.609 401.500 C 481.753 397.958, 481.914 397.467, 486.213 396.607 C 499.311 393.988, 505.449 377.162, 497.436 365.842 C 494.199 361.269, 490.350 358.990, 475.592 352.907 C 465.125 348.592, 464.777 348.585, 459.248 352.608 C 457.036 354.217, 456.959 354.160, 454.870 349.373 C 453.701 346.693, 450.838 341.800, 448.509 338.500 C 443.501 331.407, 439.918 324.461, 437.577 317.307 C 434.769 308.728, 432.849 306.996, 426.177 307.023 C 423.006 307.035, 419.048 307.761, 417.210 308.667 M 254.451 326.407 C 253.681 330.515, 254.699 339, 255.962 339 C 257.315 339, 260.906 345.740, 262.119 350.557 C 262.734 353.001, 263.634 355, 264.119 355 C 265.761 355, 264.639 326.288, 262.931 324.604 C 262.694 324.370, 260.841 323.869, 258.814 323.490 C 255.200 322.815, 255.115 322.872, 254.451 326.407 M 418.635 338.073 C 413.768 341.901, 415.962 349.514, 422.665 352.063 C 426.167 353.394, 429.604 352.259, 432.503 348.814 C 435.760 344.943, 435.655 342.501, 432.077 338.923 C 428.433 335.279, 422.651 334.913, 418.635 338.073 M 554.500 349.600 C 542.898 359.376, 532.433 364, 521.911 364 C 518.660 364, 516 364.413, 516 364.918 C 516 365.424, 517.516 366.774, 519.368 367.918 C 524.425 371.044, 533.990 370.806, 540.855 367.385 C 548.293 363.679, 559.977 351.693, 559.996 347.750 C 560.004 346.260, 557.439 347.124, 554.500 349.600 M 362.564 369.525 C 357.753 374.717, 358.942 383.223, 364.894 386.194 C 369.517 388.502, 373.801 386.822, 376.330 381.711 C 377.867 378.602, 377.975 377.456, 377.008 374.523 C 374.704 367.544, 366.902 364.845, 362.564 369.525 M 478.400 370.400 C 476.018 372.782, 475 374.714, 475 376.853 C 475 384.108, 480.192 388.406, 486.034 385.986 C 494.985 382.278, 495.199 372.070, 486.401 368.394 C 482.018 366.563, 482.310 366.490, 478.400 370.400 M 417.500 386.641 C 392.879 390.379, 373 414.439, 373 440.500 C 373 464.047, 388.576 484.719, 411 490.933 C 430.006 496.200, 447.857 491.593, 461 478.031 C 477.655 460.844, 481.483 436.713, 470.957 415.276 C 465.168 403.487, 452.745 392.578, 440.918 388.897 C 434.904 387.026, 422.707 385.850, 417.500 386.641 M 309.250 388.706 C 308.012 388.944, 307.013 389.445, 307.030 389.820 C 307.046 390.194, 309.795 392.067, 313.139 393.983 C 320.349 398.113, 330.032 406.762, 335.742 414.172 C 350.170 432.895, 359.987 461.697, 358.742 481.651 C 358.255 489.462, 358.348 490, 360.188 490 C 361.269 490, 363.469 488.685, 365.077 487.077 C 367.641 484.513, 367.999 483.438, 367.994 478.327 C 367.990 474.850, 366.780 468.313, 364.994 462.121 C 363.347 456.412, 362 450.949, 362 449.980 C 362 445.323, 356.441 427.688, 352.846 420.941 C 341.142 398.974, 323.533 385.955, 309.250 388.706 M 529.774 389.003 C 523.590 390.843, 513.083 399.111, 506.625 407.219 C 497.017 419.282, 490.928 433.355, 489.632 446.500 C 489.360 449.250, 488.166 454.200, 486.977 457.500 C 481.474 472.778, 480.494 483.279, 484.250 486.701 C 485.488 487.828, 487.512 489.272, 488.750 489.910 C 490.981 491.060, 491 491.010, 491 483.993 C 491 467.751, 498.881 440.410, 508.345 423.820 C 515.569 411.155, 527.003 399.247, 537.615 393.336 C 541.500 391.171, 541.500 391.171, 539 390.219 C 534.302 388.430, 532.499 388.193, 529.774 389.003 M 287.250 396.347 C 285.462 396.934, 284 397.722, 284 398.098 C 284 398.475, 285.837 399.518, 288.081 400.416 C 294.401 402.944, 306.916 411.761, 313 417.970 C 324.326 429.529, 335.015 449.671, 338.489 466 C 340.514 475.519, 340.760 490.463, 339 496.999 C 338.378 499.311, 338.092 501.425, 338.365 501.698 C 339.442 502.776, 345.054 498.406, 346.496 495.368 C 350.794 486.310, 350.374 474.311, 345.046 454 C 338.110 427.559, 324.327 409.323, 303.463 398.983 C 295.199 394.888, 292.859 394.507, 287.250 396.347 M 547.965 398.337 C 534.045 405.306, 525.005 413.640, 517.132 426.764 C 506.867 443.877, 502.140 459.053, 501.331 477.500 C 500.661 492.794, 501.645 496.048, 508.406 500.894 L 513.312 504.411 512.650 501.456 C 512.286 499.830, 511.463 494.376, 510.821 489.335 C 509.817 481.444, 509.895 478.940, 511.388 471.335 C 515.920 448.237, 525.957 428.753, 540.175 415.453 C 546.819 409.238, 555.950 402.730, 560.399 401.038 C 563.970 399.681, 563.659 398.302, 559.378 396.513 C 554.833 394.614, 555.665 394.482, 547.965 398.337 M 415.698 402.118 C 406.647 404.195, 394.723 412.125, 396.450 414.919 C 397.293 416.283, 450.824 416.397, 452.970 415.039 C 455.237 413.606, 447.315 406.636, 440.536 404.099 C 434.303 401.767, 421.630 400.756, 415.698 402.118 M 267.424 409.584 C 263.066 411.490, 256.357 414.191, 252.517 415.587 C 242.278 419.309, 239.436 421.399, 236.590 427.302 C 229.789 441.408, 231.202 466.072, 239.867 484.500 C 243.503 492.233, 252.028 503.402, 258.941 509.489 C 265.331 515.115, 276.535 520.708, 283.250 521.624 C 299.750 523.874, 310.158 507.078, 310.127 478.250 C 310.116 467.920, 311.585 466.006, 314.306 472.807 C 315.889 476.764, 318.600 479.733, 319.661 478.672 C 319.998 478.335, 319.768 474.140, 319.150 469.350 C 318.532 464.560, 318.307 460.384, 318.650 460.070 C 318.993 459.757, 319.452 459.950, 319.670 460.500 C 321.413 464.893, 327.774 475.473, 328.883 475.821 C 331.923 476.776, 326.528 455.997, 320.750 444.500 C 312.705 428.493, 299.262 414.865, 285.933 409.203 C 277.889 405.786, 276.023 405.824, 267.424 409.584 M 568.308 407.896 C 561.697 410.134, 548.140 419.038, 543.244 424.358 C 532.097 436.468, 524.270 453.679, 521.496 472.177 C 520.836 476.578, 520.917 476.775, 523.784 477.775 C 525.419 478.345, 528.679 480.204, 531.028 481.906 C 533.378 483.607, 535.795 485.007, 536.400 485.015 C 539.308 485.056, 540.438 487.170, 541.036 493.686 C 542.244 506.849, 550.154 519, 558.539 520.573 C 575.711 523.795, 598.750 508.518, 609.427 486.828 C 615.720 474.047, 618.032 464.287, 618.077 450.326 C 618.124 435.459, 615.641 426.706, 609.847 421.317 C 607.243 418.894, 606.067 418.378, 591 413.037 C 585.225 410.990, 578.912 408.605, 576.971 407.736 C 573.723 406.284, 573.032 406.296, 568.308 407.896 M 210.045 425.936 C 205.864 431.808, 201.802 442.142, 200.302 450.723 C 199.017 458.075, 198.956 461.286, 199.931 470.500 C 201.485 485.188, 203.225 491.577, 208.950 503.630 C 231.054 550.160, 286.124 593.773, 348.290 613.983 C 356.972 616.805, 379.034 622, 382.338 622 C 383.751 622, 386.307 609.054, 385.130 607.863 C 384.783 607.513, 378.860 605.829, 371.966 604.122 C 353.531 599.557, 336.684 593.183, 317.172 583.390 C 284.405 566.944, 261.389 548.888, 239.343 522.331 C 228.538 509.316, 217.374 488.125, 214.115 474.444 C 211.481 463.389, 211.181 441.932, 213.463 427.750 C 214.359 422.182, 213.168 421.550, 210.045 425.936 M 388.659 428.895 C 386.463 434.382, 386.564 435.650, 389.250 436.370 C 390.488 436.701, 407.646 436.979, 427.380 436.986 L 463.260 437 462.743 432.413 C 462.459 429.890, 461.727 427.327, 461.116 426.716 C 460.363 425.963, 448.815 425.469, 425.162 425.179 L 390.317 424.750 388.659 428.895 M 249.941 432.703 C 245.814 436.176, 244.014 440.581, 243.564 448.308 C 242.455 467.388, 249.343 485.213, 263.098 498.859 C 272.377 508.063, 281.833 511.206, 289.040 507.479 C 296.352 503.698, 299.154 487.450, 295.073 472.486 C 291.526 459.477, 286.573 450.486, 278.422 442.262 C 266.811 430.545, 256.584 427.113, 249.941 432.703 M 583.365 432.944 C 571.999 438.682, 561.899 450.806, 557.390 464.120 C 549.093 488.625, 554.549 508.599, 569.500 508.450 C 588.616 508.261, 608.186 480.056, 608.323 452.500 C 608.371 442.726, 607.005 438.367, 602.538 434.037 C 597.493 429.147, 591.554 428.808, 583.365 432.944 M 387.433 447.313 C 387.156 448.036, 387.510 450.398, 388.219 452.563 L 389.508 456.500 424.712 456.763 C 464.092 457.057, 461.042 457.624, 462.523 449.732 L 463.223 446 425.580 446 C 395.420 446, 387.837 446.261, 387.433 447.313 M 641.627 450.261 C 641.297 451.493, 641.021 454.750, 641.012 457.500 C 640.995 463.308, 637.031 480.464, 634.196 487 C 619.157 521.673, 578.791 561.249, 537.500 581.804 C 517.890 591.566, 501.815 597.714, 484.500 602.076 C 468.789 606.034, 470 605.074, 470 613.578 C 470 617.660, 470.433 621, 470.961 621 C 471.490 621, 475.877 620.086, 480.711 618.970 C 503.924 613.607, 535.788 601.427, 554.870 590.623 C 573.436 580.110, 596.684 562.318, 610.041 548.400 C 636.544 520.782, 647.789 499.814, 650.863 472.282 C 651.764 464.210, 651.583 456.857, 650.390 453.097 C 650.042 451.999, 649.647 452.100, 648.581 453.559 C 647.423 455.143, 646.973 455.223, 645.608 454.090 C 644.724 453.356, 644 451.937, 644 450.937 C 644 448.193, 642.311 447.712, 641.627 450.261 M 260.048 454.798 C 257.337 457.509, 257 458.501, 257 463.763 C 257 468.362, 257.681 471.044, 260.058 475.800 C 266.445 488.582, 275.656 491.507, 281.159 482.500 C 287.003 472.936, 278.124 453.765, 267.169 452.296 C 263.595 451.816, 262.724 452.122, 260.048 454.798 M 580 453.823 C 575.234 456.384, 570.338 463.030, 568.461 469.485 C 567.046 474.352, 567.050 475.184, 568.500 478.655 C 572.186 487.477, 577.557 489.277, 584.717 484.090 C 590.353 480.007, 593.337 473.433, 593.428 464.897 C 593.485 459.546, 593.068 457.579, 591.401 455.331 C 588.794 451.815, 584.736 451.278, 580 453.823 M 578.765 463.867 C 573.856 469.701, 572.733 477.193, 576.548 478.657 C 578.987 479.593, 584.103 476.878, 586.115 473.580 C 588.237 470.100, 588.604 464.004, 586.800 462.200 C 584.753 460.153, 581.285 460.872, 578.765 463.867 M 263.667 462.667 C 263.300 463.033, 263 465.251, 263 467.595 C 263 471.080, 263.629 472.524, 266.447 475.512 C 270.354 479.656, 272.863 479.773, 274.719 475.900 C 276.085 473.050, 275.213 468.501, 272.512 464.377 C 271.391 462.667, 270.026 462, 267.644 462 C 265.823 462, 264.033 462.300, 263.667 462.667 M 397.556 466.910 C 396.479 468.651, 398.210 470.933, 402.526 473.462 C 413.447 479.863, 431.138 480.799, 442.670 475.587 C 450.089 472.234, 454.234 468.392, 451.974 466.963 C 450.064 465.755, 398.300 465.705, 397.556 466.910 M 527 471.031 C 527 473.407, 529.649 474.751, 531.225 473.175 C 532.012 472.388, 531.959 471.656, 531.035 470.542 C 529.224 468.360, 527 468.629, 527 471.031 M 535.245 475.250 C 535.471 475.938, 536.725 476.656, 538.030 476.846 C 540.103 477.148, 540.236 476.990, 539.080 475.596 C 537.514 473.709, 534.652 473.451, 535.245 475.250 M 391.667 501.667 C 390.743 502.590, 390.823 538.780, 391.750 539.315 C 392.163 539.553, 395.650 539.297, 399.500 538.746 C 408.886 537.403, 446.046 537.341, 453.281 538.656 C 456.866 539.308, 459.284 539.350, 459.644 538.766 C 460.770 536.945, 458.196 535.868, 449.903 534.690 C 441.527 533.500, 441.527 533.500, 440.821 529.500 C 440.433 527.300, 440.089 521.279, 440.058 516.121 L 440 506.742 434.124 507.406 C 426.587 508.259, 411.796 506.456, 401.239 503.396 C 391.806 500.663, 392.538 500.795, 391.667 501.667 M 316.819 508.531 C 311.523 511.288, 309.302 513.663, 313.125 512.479 C 317.247 511.203, 323 507.999, 323 506.980 C 323 505.565, 322.061 505.801, 316.819 508.531 M 209 525.001 C 209 527.563, 216.250 549.630, 221.977 564.500 C 224.096 570, 227.731 579.450, 230.056 585.500 C 239.033 608.861, 251.827 625.634, 273.933 643.024 C 292.342 657.506, 322.844 673.147, 347.697 680.848 C 368.568 687.315, 370.987 687.914, 371.112 686.640 C 371.174 686.013, 371.287 673.709, 371.362 659.297 C 371.500 633.094, 371.500 633.094, 369 632.502 C 367.625 632.176, 359.754 629.840, 351.510 627.310 C 322.014 618.260, 300.484 608.100, 275.441 591.413 C 255.592 578.188, 247.816 571.696, 235.693 558.229 C 224.795 546.122, 220.511 540.448, 215.394 531.345 C 211.186 523.860, 209 521.690, 209 525.001 M 317.987 531.846 C 316.056 532.893, 311.216 534.077, 307.234 534.477 C 303.251 534.877, 299.742 535.609, 299.435 536.105 C 298.421 537.746, 304.414 547.333, 310 553.006 C 317.584 560.708, 338.858 574.476, 340.554 572.779 C 342.094 571.240, 338.186 565.106, 330.277 556.650 C 323.845 549.773, 322 547.153, 322 544.900 C 322 543.305, 322.308 542, 322.685 542 C 323.062 542, 326.324 543.504, 329.935 545.342 C 333.546 547.180, 342.435 551.043, 349.689 553.926 C 361.431 558.593, 362.933 559.460, 363.384 561.834 C 363.663 563.300, 364.402 567.738, 365.026 571.695 C 366.232 579.331, 366.880 580.337, 371.272 581.387 C 373.257 581.861, 374.206 581.627, 374.615 580.562 C 374.928 579.744, 374.806 572.650, 374.343 564.797 L 373.500 550.518 356 543.401 C 346.375 539.487, 335.800 535.109, 332.500 533.673 C 323.853 529.910, 321.993 529.676, 317.987 531.846 M 512.655 535.137 C 507.790 537.396, 497.688 541.589, 490.205 544.453 C 478.772 548.830, 476.499 550.047, 475.961 552.081 C 475.608 553.411, 475.036 561.156, 474.688 569.292 C 473.999 585.401, 474.166 585.928, 479.538 584.580 C 482.820 583.756, 483.920 580.750, 485.239 569 C 485.826 563.775, 486.799 559.005, 487.403 558.401 C 488.006 557.796, 491.200 556.258, 494.500 554.982 C 505.708 550.649, 518.972 543.964, 522.492 540.873 C 526.091 537.713, 526.978 534.378, 524.800 532.200 C 523.055 530.455, 522.385 530.616, 512.655 535.137 M 185.500 536.922 C 178.661 538.980, 159.419 545.782, 150.500 549.295 C 144.554 551.636, 144.501 551.693, 144.591 555.579 C 144.641 557.735, 145.538 562.344, 146.584 565.820 C 148.219 571.255, 148.766 572.068, 150.492 571.622 C 152.378 571.135, 170.101 564.889, 183.500 559.989 C 186.800 558.782, 192.088 556.886, 195.250 555.775 C 199.079 554.431, 200.997 553.212, 200.992 552.128 C 200.987 551.233, 199.735 547.125, 198.209 543 C 195.022 534.383, 194.604 534.182, 185.500 536.922 M 166 550 C 163.399 552.601, 163.362 557.588, 165.934 558.965 C 169.134 560.677, 172.767 560.171, 174.443 557.777 C 178.938 551.360, 171.496 544.504, 166 550 M 677.698 549.781 C 675.231 552.508, 675.608 555.530, 678.872 559.183 C 681.676 562.321, 681.805 562.358, 684.296 560.725 C 687.887 558.373, 688.507 555.555, 686.277 551.723 C 684.038 547.874, 680.208 547.007, 677.698 549.781 M 406.054 550.091 C 400.563 551.168, 398.868 552.780, 398.661 557.125 C 398.503 560.436, 398.575 560.498, 402.500 560.410 C 404.700 560.360, 410.100 559.752, 414.500 559.057 C 422.670 557.768, 434.185 558.178, 444.774 560.135 C 450.301 561.157, 452.618 560.634, 449.971 558.962 C 449.162 558.451, 445.913 557.517, 442.750 556.886 C 437.238 555.787, 435.463 554.068, 438.135 552.417 C 438.868 551.964, 438.425 551.247, 436.885 550.393 C 434.140 548.872, 413.314 548.667, 406.054 550.091 M 178.060 577.030 C 163.518 581.989, 151.416 586.250, 151.167 586.500 C 150.918 586.749, 151.678 589.274, 152.857 592.110 C 154.036 594.946, 155 598.332, 155 599.633 C 155 600.935, 155.195 602, 155.434 602 C 155.673 602, 158.485 600.907, 161.684 599.571 C 164.883 598.235, 174.006 594.811, 181.958 591.961 C 198.714 585.957, 211.312 580.563, 211.767 579.198 C 212.162 578.014, 206.806 568.766, 205.474 568.331 C 204.938 568.156, 192.602 572.070, 178.060 577.030 M 412.112 569.129 C 405.407 570.242, 402.215 571.776, 399.794 575.049 C 397.886 577.630, 398.143 580.457, 400.363 581.309 C 401.027 581.564, 404.930 581.086, 409.035 580.247 C 418.364 578.340, 439.125 578.114, 444.230 579.864 C 451.705 582.425, 451.151 577.954, 443.382 573.027 C 436.310 568.542, 424.505 567.071, 412.112 569.129 M 656 571.046 C 656 571.480, 658.138 572.620, 660.750 573.580 C 663.362 574.540, 668.194 576.428, 671.486 577.775 C 678.871 580.796, 698.870 586.993, 701.250 586.997 C 702.212 586.999, 703 586.598, 703 586.107 C 703 585.057, 703.544 585.279, 685 578.786 C 669.493 573.358, 656 569.756, 656 571.046 M 404.325 590.421 C 399.831 592.430, 397.508 596.213, 399.027 599.051 C 400.076 601.010, 400.729 601.169, 405.348 600.593 C 415.784 599.292, 440.522 598.763, 444.127 599.764 C 446.319 600.373, 448.296 600.413, 449.127 599.865 C 450.969 598.650, 447.382 595.600, 440 592.104 C 435.038 589.755, 433.179 589.476, 421 589.251 C 411.049 589.067, 406.665 589.374, 404.325 590.421 M 203.500 601.910 C 195.450 604.282, 181.166 609.922, 180.507 610.989 C 179.437 612.720, 192.719 620.156, 202.744 623.439 C 205.629 624.384, 208.329 625.736, 208.744 626.443 C 209.160 627.150, 210.988 628.490, 212.808 629.420 C 214.627 630.350, 220.391 635.184, 225.617 640.163 C 238.635 652.565, 239.114 651.389, 227.824 634.748 C 220.926 624.578, 212 607.841, 212 605.073 C 212 602.685, 210.994 599.977, 210.143 600.071 C 209.789 600.110, 206.800 600.938, 203.500 601.910 M 407.185 609.925 C 403.269 610.928, 399 614.645, 399 617.052 C 399 620.577, 401.279 621.147, 410.651 619.965 C 415.518 619.352, 426.025 618.985, 434 619.150 C 442.869 619.334, 448.575 619.072, 448.694 618.475 C 448.964 617.118, 441.476 612.243, 437.113 610.935 C 432.434 609.533, 411.477 608.825, 407.185 609.925 M 597.477 619.812 C 581.313 635.515, 568.305 646.398, 564.233 647.626 C 562.180 648.245, 555.100 651.322, 548.500 654.464 C 532.659 662.006, 512.232 669.947, 496.908 674.521 C 482.641 678.778, 479.497 680.203, 477.937 683.118 C 475.959 686.813, 478.089 687.216, 488.093 685.037 C 513.664 679.469, 551.909 662.239, 567.800 649.127 C 570.935 646.541, 576.425 642.236, 580 639.561 C 583.575 636.885, 589.122 632.177, 592.327 629.098 C 598.501 623.165, 608.513 611.180, 607.849 610.515 C 607.631 610.298, 602.964 614.482, 597.477 619.812 M 301.053 630.750 C 299.249 637.245, 299.636 638.844, 303.250 639.825 C 305.099 640.327, 307.239 640.332, 308.216 639.837 C 309.553 639.158, 310.274 639.629, 311.486 641.973 C 312.981 644.864, 319.377 649, 322.353 649 C 324.282 649, 325 646.802, 325 640.902 C 325 636.299, 324.782 635.871, 321.750 634.520 C 317.906 632.809, 303.016 627, 302.471 627 C 302.264 627, 301.625 628.688, 301.053 630.750 M 412.224 628.738 C 405.503 629.207, 406.367 631.002, 413.309 630.994 C 423.282 630.982, 435.662 629.675, 433 628.914 C 430.412 628.174, 421.398 628.098, 412.224 628.738 M 533.775 630.559 C 528.984 633.159, 527.573 638.517, 530.557 642.777 C 532.660 645.781, 535.328 645.573, 539.211 642.102 C 541.883 639.715, 542.455 638.473, 542.455 635.052 C 542.455 629.133, 539.357 627.530, 533.775 630.559 M 397.220 640.741 L 390.939 641.097 391.220 653.290 L 391.500 665.483 423.500 665.219 C 441.100 665.073, 456.063 664.964, 456.750 664.977 C 457.663 664.994, 458 662.471, 458 655.625 C 458 644.489, 457.246 640, 455.375 640 C 454.291 640, 454 642.355, 454 651.145 L 454 662.290 447.250 661.717 C 437.011 660.849, 437.338 661.189, 438.154 652.229 C 438.541 647.978, 438.890 644.388, 438.929 644.250 C 438.968 644.112, 439.675 644, 440.500 644 C 442.617 644, 442.363 642.265, 440.066 641.035 C 438.249 640.063, 412.330 639.885, 397.220 640.741 M 496.923 643.923 C 489.231 651.615, 497.623 661.395, 505.923 654.411 C 509.754 651.188, 509.940 647.493, 506.460 643.740 C 503.200 640.224, 500.571 640.275, 496.923 643.923 M 341 649.428 L 341 656.856 346.654 658.972 C 354.345 661.849, 355.324 661.493, 356.238 655.488 C 357.447 647.538, 356.844 646.469, 349.810 644.093 C 340.775 641.042, 341 640.905, 341 649.428 M 399.657 678.486 C 397.292 680.851, 397.601 682.693, 400.706 684.727 C 403.065 686.272, 405.857 686.494, 422.456 686.452 C 441.766 686.403, 448.749 685.325, 449.762 682.236 C 449.996 681.519, 448.513 680.232, 446.338 679.265 C 443.231 677.884, 438.578 677.490, 421.907 677.194 C 403.757 676.873, 401.117 677.026, 399.657 678.486 M 400.250 698.100 C 397.837 700.610, 398.762 704.004, 402.250 705.438 C 411.742 709.339, 429.904 709.759, 442 706.358 C 448.316 704.581, 450 703.458, 450 701.019 C 450 699.471, 448.296 699.217, 434.250 698.664 C 425.587 698.323, 414.675 697.764, 410 697.422 C 403.662 696.958, 401.182 697.130, 400.250 698.100 M 399.567 717.926 C 397.023 720.737, 397.980 723.174, 402.638 725.744 C 412.466 731.165, 433.294 730.888, 445 725.181 C 451.413 722.055, 452.371 719.413, 447 719.664 C 428.020 720.550, 419.076 720.174, 411 718.147 C 400.724 715.568, 401.684 715.587, 399.567 717.926 M 399.112 739.381 C 396.820 741.820, 396.820 741.820, 399.011 744.011 C 406.954 751.954, 430.333 753.960, 442.754 747.764 C 452.899 742.703, 454.129 737.652, 444.512 740.546 C 435.325 743.311, 413.843 741.757, 402.952 737.540 C 402.026 737.182, 400.483 737.922, 399.112 739.381 M 399.725 757.609 C 399.326 758.007, 399 759.406, 399 760.716 C 399 764.196, 412.013 770.279, 420.631 770.827 C 428.627 771.337, 442 767.053, 442 763.983 C 442 763.550, 436.038 763.014, 428.750 762.791 C 418.185 762.467, 414.284 761.931, 409.500 760.146 C 400.730 756.873, 400.516 756.818, 399.725 757.609" stroke="none" fill="#161710" fill-rule="evenodd"/><path d="M 0 409.501 L 0 819.002 409.750 818.751 L 819.500 818.500 819.751 409.250 L 820.002 -0 410.001 -0 L 0 0 0 409.501 M 0.495 410 C 0.495 635.225, 0.610 727.363, 0.750 614.750 C 0.890 502.138, 0.890 317.863, 0.750 205.250 C 0.610 92.638, 0.495 184.775, 0.495 410 M 397.500 61.359 C 385.169 62.940, 383.394 63.841, 381.921 69.266 C 381.289 71.595, 380.634 74.005, 380.466 74.623 C 380.298 75.240, 376.862 76.541, 372.830 77.514 C 338.576 85.779, 306.550 107.729, 287.142 136.243 C 281.762 144.147, 273.397 161.304, 270.104 171.187 C 267.736 178.297, 264 193.770, 264 196.471 C 264 196.633, 261.056 198.683, 257.458 201.028 C 253.859 203.372, 250.484 206.095, 249.958 207.079 C 249.431 208.063, 249 217.925, 249 228.994 L 249 249.119 245.288 253.560 C 243.247 256.002, 240.974 258, 240.237 258 C 239.501 258, 238.254 259.540, 237.468 261.423 C 236.318 264.175, 235.005 265.231, 230.769 266.812 C 225.500 268.777, 225.500 268.777, 225.536 274.389 C 225.555 277.475, 225.668 291.444, 225.786 305.430 L 226 330.860 231.250 332.817 C 236.374 334.728, 236.516 334.889, 237.187 339.524 C 238.013 345.238, 238.387 345.661, 244.058 347.298 C 248.500 348.581, 248.500 348.581, 249.053 355.540 C 249.371 359.539, 250.325 363.590, 251.295 365.062 C 252.947 367.569, 252.914 367.689, 249.742 370.646 C 247.959 372.308, 243.125 376.393, 239 379.724 C 218.313 396.425, 203.508 416.434, 194.399 440 C 191.623 447.181, 191.505 448.159, 191.609 463 C 191.668 471.525, 192.279 487.162, 192.966 497.748 C 193.653 508.335, 193.963 517.654, 193.655 518.458 C 192.831 520.604, 185.271 524.111, 169.633 529.602 C 161.852 532.334, 150.002 537.558, 142.633 541.504 C 127.261 549.737, 128.079 547.286, 134.066 567.160 C 137.306 577.913, 137.964 581.404, 137.461 585.161 C 136.638 591.307, 138.282 593.718, 147.365 599.691 C 151.289 602.271, 157.121 606.373, 160.324 608.807 C 163.527 611.240, 184.452 625.469, 206.824 640.427 C 229.196 655.385, 254.925 672.588, 264 678.656 C 273.075 684.725, 287.250 694.085, 295.500 699.456 C 311.210 709.686, 312.337 710.442, 360.500 743.063 C 390.843 763.616, 407.099 774.656, 416.850 781.335 C 419.793 783.351, 423.043 785, 424.073 785 C 425.102 785, 430.120 782.060, 435.222 778.467 C 450.234 767.896, 517.571 723.370, 561.447 695 C 589.287 676.999, 682.670 613.759, 690.366 607.694 L 694.233 604.648 688.866 601.959 C 685.915 600.480, 677.200 596.908, 669.500 594.021 C 647.440 585.750, 643.397 584.019, 641.059 581.840 C 639.854 580.717, 639.058 579.609, 639.290 579.377 C 639.928 578.739, 674.329 590.293, 683.831 594.338 C 688.413 596.288, 693.254 599.061, 694.588 600.500 L 697.013 603.118 702.068 600.366 C 710.087 596.002, 711.999 593.776, 712.006 588.798 C 712.014 582.374, 713.600 573.875, 717.120 561.377 C 718.857 555.211, 720.021 549.497, 719.707 548.678 C 719.392 547.859, 717.721 546.878, 715.993 546.499 C 714.265 546.119, 711.339 544.481, 709.491 542.858 C 705.960 539.758, 697.620 535.874, 672 525.398 L 656.500 519.060 656.774 512.780 C 656.925 509.326, 657.642 499.525, 658.368 491 C 660.515 465.778, 660.405 452.764, 657.972 444 C 651.659 421.266, 632.466 396.086, 606.689 376.722 C 597.653 369.933, 595.976 368.259, 596.501 366.548 C 596.847 365.422, 597.632 361.001, 598.246 356.724 C 599.272 349.567, 599.566 348.904, 601.931 348.405 C 610.285 346.639, 611.444 345.724, 612.544 340.020 C 613.586 334.616, 613.595 334.607, 618.444 333.369 C 621.116 332.688, 623.677 331.539, 624.135 330.815 C 624.594 330.092, 624.851 316.008, 624.706 299.518 L 624.444 269.536 619.972 267.891 C 615.845 266.372, 615.475 265.947, 615.175 262.385 C 614.791 257.810, 613.581 256.142, 609.371 254.382 C 607.650 253.663, 604.837 251.892, 603.121 250.448 C 600 247.822, 600 247.822, 600 227.085 C 600 206.854, 599.945 206.299, 597.750 204.302 C 596.023 202.732, 590.031 198.637, 586.201 196.409 C 586.037 196.314, 584.630 191.120, 583.074 184.868 C 573.399 145.974, 553.385 117.566, 520.500 96.049 C 504.923 85.857, 490.758 80.027, 470.750 75.574 C 468.448 75.062, 467.998 74.435, 467.985 71.731 C 467.963 66.816, 465.881 63.644, 461.796 62.300 C 456.187 60.455, 409.835 59.777, 397.500 61.359 M 401.514 70.994 C 398.771 71.493, 395.509 72.157, 394.264 72.470 C 392 73.038, 392 73.038, 392 123.662 L 392 174.285 397.833 173.675 C 405.937 172.828, 407 172.274, 407 168.893 C 407 166.840, 407.508 165.973, 408.750 165.906 C 420.970 165.246, 434.312 165.061, 437.552 165.506 C 441.054 165.988, 441.733 166.498, 442.552 169.266 C 443.380 172.064, 444.070 172.569, 448 173.252 C 450.475 173.683, 453.521 173.792, 454.768 173.494 C 457.036 172.953, 457.036 172.953, 456.900 126.726 C 456.743 73.672, 456.670 72.433, 453.654 71.560 C 449.995 70.502, 406.794 70.033, 401.514 70.994 M 407.250 77.650 C 406.545 77.942, 406 79.908, 406 82.164 L 406 86.162 423.919 85.831 C 433.774 85.649, 442.166 85.170, 442.568 84.767 C 442.970 84.364, 442.878 82.564, 442.363 80.767 L 441.427 77.500 424.964 77.317 C 415.909 77.216, 407.938 77.366, 407.250 77.650 M 369.500 90.468 C 360.746 92.378, 344.399 99.891, 332.521 107.463 C 313.583 119.536, 296.213 139.497, 286.533 160.311 C 282.070 169.907, 277.608 184.134, 276.516 192.250 C 275.752 197.936, 276.638 198.225, 283.783 194.621 C 289.525 191.725, 307.439 185.883, 322.434 182.017 C 332.522 179.416, 365.091 175, 374.187 175 C 381.539 175, 381 178.450, 381 131.393 L 381 89 378.250 89.079 C 376.738 89.123, 372.800 89.748, 369.500 90.468 M 407.250 93.662 C 406.549 93.945, 406 95.886, 406 98.083 L 406 102 424.500 102 L 443 102 443 97.500 L 443 93 425.750 93.079 C 416.262 93.122, 407.938 93.385, 407.250 93.662 M 406.667 110.667 C 406.300 111.033, 406 113.320, 406 115.748 L 406 120.162 423.750 119.831 C 433.512 119.649, 441.965 119.196, 442.534 118.825 C 443.102 118.453, 443.392 116.316, 443.179 114.075 L 442.790 110 425.062 110 C 415.311 110, 407.033 110.300, 406.667 110.667 M 413 127.923 C 406.500 128.500, 406.500 128.500, 406.500 132.500 L 406.500 136.500 424.500 136.450 L 442.500 136.400 442.800 132.352 L 443.100 128.304 434.800 127.658 C 425.991 126.972, 423.334 127.005, 413 127.923 M 320.420 131.885 C 318.726 132.918, 316.734 135.228, 315.992 137.019 C 314.845 139.789, 314.860 140.660, 316.096 142.863 C 318.446 147.048, 322.094 148.618, 325.854 147.061 C 329.418 145.584, 333 140.444, 333 136.806 C 333 133.715, 329.141 129.999, 325.936 130.004 C 324.596 130.006, 322.114 130.853, 320.420 131.885 M 406.667 146.667 C 406.300 147.033, 406 149.068, 406 151.189 L 406 155.045 424.250 154.773 L 442.500 154.500 442.807 150.250 L 443.115 146 425.224 146 C 415.384 146, 407.033 146.300, 406.667 146.667 M 299.159 160.601 C 294.653 163.757, 294.087 169.906, 298.105 172.056 C 300.956 173.582, 303.601 172.382, 306.023 168.464 C 308.542 164.387, 307.937 161.307, 304.349 159.943 C 301.295 158.781, 301.860 158.710, 299.159 160.601 M 370.664 186.022 C 328.739 189.093, 286.752 201.062, 269.182 214.950 C 262.072 220.570, 260 224.408, 260 231.957 L 260 238.177 266.388 232.339 C 288.644 211.997, 323.509 202.329, 387 198.892 C 414.741 197.391, 467.562 198.471, 493 201.060 C 532.952 205.127, 565.207 215.759, 580.235 229.817 C 582.856 232.268, 585 233.803, 585 233.229 C 585 231.432, 576.385 223.222, 570.655 219.556 C 565.057 215.975, 544.692 206.661, 535.250 203.364 C 530.031 201.541, 528.405 199.986, 531.750 200.016 C 533.690 200.033, 550.351 203.473, 553.500 204.507 C 555.423 205.138, 555.429 205.105, 553.655 203.652 C 550.600 201.149, 530.204 194.366, 519 192.126 C 490.588 186.446, 482.651 185.847, 431 185.490 C 404.325 185.306, 377.174 185.545, 370.664 186.022 M 496.500 220.952 C 475.268 224.456, 454.887 241.580, 447.884 261.798 C 445.069 269.925, 444.386 284.551, 446.380 294 C 451.398 317.784, 470.079 337.032, 493.391 342.439 C 514.024 347.223, 534.092 342.096, 549.094 328.207 C 557.812 320.135, 564.349 307.770, 566.120 296 C 567.308 288.102, 566.773 274.427, 564.958 266.294 C 560.662 247.042, 542.603 228.631, 522.107 222.608 C 515.437 220.648, 503.156 219.854, 496.500 220.952 M 329.500 221.951 C 312.432 225.662, 294.481 239.674, 286.749 255.321 C 281.647 265.645, 279.997 272.661, 280.015 283.960 C 280.044 302.509, 284.584 313.578, 297.501 326.587 C 308.925 338.092, 320.079 343.175, 337.064 344.615 C 358.029 346.393, 380.716 335.460, 392.496 317.902 C 398.579 308.835, 401.725 300.331, 402.924 289.708 C 404.805 273.043, 400.797 256.903, 391.923 245.400 C 384.652 235.975, 371.483 226.955, 360 223.533 C 353.620 221.632, 335.330 220.683, 329.500 221.951 M 389.052 222.816 C 388.410 223.030, 390.623 225.682, 393.969 228.710 C 400.566 234.680, 407.264 243.519, 411.333 251.623 L 413.905 256.746 424.130 256.623 L 434.355 256.500 438.845 249 C 441.570 244.448, 446.979 237.864, 452.606 232.250 C 461.857 223.020, 461.870 223, 458.601 223 C 456.800 223, 450.865 223.672, 445.413 224.494 C 432.967 226.370, 423.531 226.389, 408.958 224.568 C 393.422 222.627, 390.415 222.362, 389.052 222.816 M 336 235.066 C 323.734 236.899, 316.003 241.073, 306.793 250.837 C 292.583 265.900, 289.262 287.051, 298.163 305.806 C 301.670 313.195, 309.396 321.320, 316.627 325.223 C 326.826 330.728, 342.460 332.522, 353.068 329.404 C 378.561 321.911, 392.900 300.186, 389.198 274.663 C 386.921 258.966, 377.734 246.308, 363.739 239.589 C 357.649 236.665, 346.157 233.711, 342.500 234.129 C 341.950 234.192, 339.025 234.614, 336 235.066 M 497.056 235.026 C 490.444 236.419, 478.822 242.264, 473.958 246.643 C 460.914 258.387, 455.704 278.219, 460.996 295.987 C 465.625 311.529, 480.797 325.620, 497.022 329.444 C 523.507 335.686, 546.931 320.626, 552.667 293.668 C 555.629 279.747, 553.011 266.601, 545.007 255.203 C 536.099 242.519, 523.590 235.293, 509.179 234.508 C 504.956 234.278, 499.500 234.511, 497.056 235.026 M 325 249.301 C 311.043 256.109, 306 265.299, 306 283.927 C 306 295.909, 307.705 301.346, 313.468 307.744 C 318.747 313.606, 326.638 319.395, 327.484 318.027 C 328.317 316.678, 329.807 297.834, 331.004 273.500 C 331.545 262.500, 332.274 251.813, 332.625 249.750 C 332.975 247.688, 332.865 246.029, 332.381 246.065 C 331.896 246.101, 328.575 247.557, 325 249.301 M 482.404 254.944 C 478.804 257.708, 476.669 260.342, 475.130 263.920 C 470.549 274.569, 469.681 288.401, 473.033 297.360 C 475.230 303.231, 481.622 311.236, 485.865 313.430 C 488.500 314.792, 488.500 314.792, 488.576 295.646 C 488.618 285.116, 488.990 270.762, 489.403 263.750 C 490.271 248.994, 490.227 248.939, 482.404 254.944 M 257.169 256.848 C 256.220 257.468, 256.758 257.902, 259.044 258.359 C 263.774 259.305, 268.568 259.159, 267.450 258.103 C 266.019 256.752, 258.687 255.857, 257.169 256.848 M 581.016 266.750 C 581.025 267.163, 580.883 275.664, 580.701 285.643 C 580.433 300.345, 580.061 304.258, 578.737 306.278 C 577.839 307.649, 577.381 309.047, 577.719 309.385 C 578.928 310.594, 590.050 310.040, 590.461 308.750 C 590.680 308.063, 591.043 298.163, 591.268 286.750 L 591.676 266 586.338 266 C 583.402 266, 581.007 266.337, 581.016 266.750 M 258.590 268.868 C 255.680 269.500, 255.680 269.500, 255.678 289.500 L 255.676 309.500 263.338 309.792 C 270.931 310.081, 272.166 309.572, 269.750 307.144 C 268.828 306.217, 268.534 300.910, 268.631 286.944 L 268.762 268 265.131 268.118 C 263.134 268.183, 260.190 268.521, 258.590 268.868 M 240.503 270.640 C 236.258 274.885, 236.122 275.749, 235.920 299.913 C 235.739 321.571, 235.861 323.425, 237.553 324.663 C 238.559 325.398, 240.534 326, 241.941 325.999 C 244.500 325.999, 244.500 325.999, 244.793 301.249 C 245.082 276.878, 244.640 269, 242.984 269 C 242.521 269, 241.405 269.738, 240.503 270.640 M 416.237 280.717 L 416.325 291.673 425.101 291.619 L 433.877 291.565 434.188 281.532 C 434.360 276.015, 434.376 271.301, 434.223 271.057 C 434.071 270.813, 429.942 270.422, 425.047 270.188 L 416.148 269.762 416.237 280.717 M 611.763 277.634 C 610.265 279.938, 609.030 293.258, 608.862 308.916 C 608.768 317.775, 608.921 325.254, 609.202 325.535 C 610.392 326.725, 612.820 324.662, 613.146 322.183 C 613.786 317.331, 612.517 276.474, 611.763 277.634 M 417.210 308.667 C 414.929 309.791, 412.668 312.469, 409.840 317.394 C 397.549 338.801, 391.906 344.827, 378 351.396 C 354.127 362.672, 328.726 364.211, 310.227 355.501 C 302.840 352.023, 293.979 344.221, 285.805 334 C 283.826 331.525, 281.846 329.852, 281.404 330.283 C 279.998 331.653, 282.803 341.923, 286.716 349.739 C 290.871 358.035, 301.228 370.066, 305.720 371.814 C 307.249 372.409, 311.875 373.864, 316 375.046 C 333.348 380.021, 346.994 390.590, 357.998 407.577 C 361.356 412.759, 364.507 417, 365.001 417 C 365.495 417, 367.819 413.288, 370.166 408.750 C 376.407 396.686, 386.885 386.587, 402.503 377.583 C 414.500 370.667, 414.500 370.667, 423.517 370.224 C 432.534 369.782, 432.534 369.782, 441.517 374.477 C 462.377 385.381, 474.245 396.157, 482.971 412.114 C 484.503 414.914, 486.034 416.755, 486.374 416.204 C 488.127 413.368, 490.699 402.932, 489.785 402.367 C 489.230 402.024, 488.383 402.364, 487.902 403.122 C 487.217 404.201, 486.503 403.850, 484.609 401.500 C 481.753 397.958, 481.914 397.467, 486.213 396.607 C 499.311 393.988, 505.449 377.162, 497.436 365.842 C 494.199 361.269, 490.350 358.990, 475.592 352.907 C 465.125 348.592, 464.777 348.585, 459.248 352.608 C 457.036 354.217, 456.959 354.160, 454.870 349.373 C 453.701 346.693, 450.838 341.800, 448.509 338.500 C 443.501 331.407, 439.918 324.461, 437.577 317.307 C 434.769 308.728, 432.849 306.996, 426.177 307.023 C 423.006 307.035, 419.048 307.761, 417.210 308.667 M 254.451 326.407 C 253.681 330.515, 254.699 339, 255.962 339 C 257.315 339, 260.906 345.740, 262.119 350.557 C 262.734 353.001, 263.634 355, 264.119 355 C 265.761 355, 264.639 326.288, 262.931 324.604 C 262.694 324.370, 260.841 323.869, 258.814 323.490 C 255.200 322.815, 255.115 322.872, 254.451 326.407 M 418.635 338.073 C 413.768 341.901, 415.962 349.514, 422.665 352.063 C 426.167 353.394, 429.604 352.259, 432.503 348.814 C 435.760 344.943, 435.655 342.501, 432.077 338.923 C 428.433 335.279, 422.651 334.913, 418.635 338.073 M 554.500 349.600 C 542.898 359.376, 532.433 364, 521.911 364 C 518.660 364, 516 364.413, 516 364.918 C 516 365.424, 517.516 366.774, 519.368 367.918 C 524.425 371.044, 533.990 370.806, 540.855 367.385 C 548.293 363.679, 559.977 351.693, 559.996 347.750 C 560.004 346.260, 557.439 347.124, 554.500 349.600 M 362.564 369.525 C 357.753 374.717, 358.942 383.223, 364.894 386.194 C 369.517 388.502, 373.801 386.822, 376.330 381.711 C 377.867 378.602, 377.975 377.456, 377.008 374.523 C 374.704 367.544, 366.902 364.845, 362.564 369.525 M 478.400 370.400 C 476.018 372.782, 475 374.714, 475 376.853 C 475 384.108, 480.192 388.406, 486.034 385.986 C 494.985 382.278, 495.199 372.070, 486.401 368.394 C 482.018 366.563, 482.310 366.490, 478.400 370.400 M 417.500 386.641 C 392.879 390.379, 373 414.439, 373 440.500 C 373 464.047, 388.576 484.719, 411 490.933 C 430.006 496.200, 447.857 491.593, 461 478.031 C 477.655 460.844, 481.483 436.713, 470.957 415.276 C 465.168 403.487, 452.745 392.578, 440.918 388.897 C 434.904 387.026, 422.707 385.850, 417.500 386.641 M 309.250 388.706 C 308.012 388.944, 307.013 389.445, 307.030 389.820 C 307.046 390.194, 309.795 392.067, 313.139 393.983 C 320.349 398.113, 330.032 406.762, 335.742 414.172 C 350.170 432.895, 359.987 461.697, 358.742 481.651 C 358.255 489.462, 358.348 490, 360.188 490 C 361.269 490, 363.469 488.685, 365.077 487.077 C 367.641 484.513, 367.999 483.438, 367.994 478.327 C 367.990 474.850, 366.780 468.313, 364.994 462.121 C 363.347 456.412, 362 450.949, 362 449.980 C 362 445.323, 356.441 427.688, 352.846 420.941 C 341.142 398.974, 323.533 385.955, 309.250 388.706 M 529.774 389.003 C 523.590 390.843, 513.083 399.111, 506.625 407.219 C 497.017 419.282, 490.928 433.355, 489.632 446.500 C 489.360 449.250, 488.166 454.200, 486.977 457.500 C 481.474 472.778, 480.494 483.279, 484.250 486.701 C 485.488 487.828, 487.512 489.272, 488.750 489.910 C 490.981 491.060, 491 491.010, 491 483.993 C 491 467.751, 498.881 440.410, 508.345 423.820 C 515.569 411.155, 527.003 399.247, 537.615 393.336 C 541.500 391.171, 541.500 391.171, 539 390.219 C 534.302 388.430, 532.499 388.193, 529.774 389.003 M 287.250 396.347 C 285.462 396.934, 284 397.722, 284 398.098 C 284 398.475, 285.837 399.518, 288.081 400.416 C 294.401 402.944, 306.916 411.761, 313 417.970 C 324.326 429.529, 335.015 449.671, 338.489 466 C 340.514 475.519, 340.760 490.463, 339 496.999 C 338.378 499.311, 338.092 501.425, 338.365 501.698 C 339.442 502.776, 345.054 498.406, 346.496 495.368 C 350.794 486.310, 350.374 474.311, 345.046 454 C 338.110 427.559, 324.327 409.323, 303.463 398.983 C 295.199 394.888, 292.859 394.507, 287.250 396.347 M 547.965 398.337 C 534.045 405.306, 525.005 413.640, 517.132 426.764 C 506.867 443.877, 502.140 459.053, 501.331 477.500 C 500.661 492.794, 501.645 496.048, 508.406 500.894 L 513.312 504.411 512.650 501.456 C 512.286 499.830, 511.463 494.376, 510.821 489.335 C 509.817 481.444, 509.895 478.940, 511.388 471.335 C 515.920 448.237, 525.957 428.753, 540.175 415.453 C 546.819 409.238, 555.950 402.730, 560.399 401.038 C 563.970 399.681, 563.659 398.302, 559.378 396.513 C 554.833 394.614, 555.665 394.482, 547.965 398.337 M 415.698 402.118 C 406.647 404.195, 394.723 412.125, 396.450 414.919 C 397.293 416.283, 450.824 416.397, 452.970 415.039 C 455.237 413.606, 447.315 406.636, 440.536 404.099 C 434.303 401.767, 421.630 400.756, 415.698 402.118 M 267.424 409.584 C 263.066 411.490, 256.357 414.191, 252.517 415.587 C 242.278 419.309, 239.436 421.399, 236.590 427.302 C 229.789 441.408, 231.202 466.072, 239.867 484.500 C 243.503 492.233, 252.028 503.402, 258.941 509.489 C 265.331 515.115, 276.535 520.708, 283.250 521.624 C 299.750 523.874, 310.158 507.078, 310.127 478.250 C 310.116 467.920, 311.585 466.006, 314.306 472.807 C 315.889 476.764, 318.600 479.733, 319.661 478.672 C 319.998 478.335, 319.768 474.140, 319.150 469.350 C 318.532 464.560, 318.307 460.384, 318.650 460.070 C 318.993 459.757, 319.452 459.950, 319.670 460.500 C 321.413 464.893, 327.774 475.473, 328.883 475.821 C 331.923 476.776, 326.528 455.997, 320.750 444.500 C 312.705 428.493, 299.262 414.865, 285.933 409.203 C 277.889 405.786, 276.023 405.824, 267.424 409.584 M 568.308 407.896 C 561.697 410.134, 548.140 419.038, 543.244 424.358 C 532.097 436.468, 524.270 453.679, 521.496 472.177 C 520.836 476.578, 520.917 476.775, 523.784 477.775 C 525.419 478.345, 528.679 480.204, 531.028 481.906 C 533.378 483.607, 535.795 485.007, 536.400 485.015 C 539.308 485.056, 540.438 487.170, 541.036 493.686 C 542.244 506.849, 550.154 519, 558.539 520.573 C 575.711 523.795, 598.750 508.518, 609.427 486.828 C 615.720 474.047, 618.032 464.287, 618.077 450.326 C 618.124 435.459, 615.641 426.706, 609.847 421.317 C 607.243 418.894, 606.067 418.378, 591 413.037 C 585.225 410.990, 578.912 408.605, 576.971 407.736 C 573.723 406.284, 573.032 406.296, 568.308 407.896 M 210.045 425.936 C 205.864 431.808, 201.802 442.142, 200.302 450.723 C 199.017 458.075, 198.956 461.286, 199.931 470.500 C 201.485 485.188, 203.225 491.577, 208.950 503.630 C 231.054 550.160, 286.124 593.773, 348.290 613.983 C 356.972 616.805, 379.034 622, 382.338 622 C 383.751 622, 386.307 609.054, 385.130 607.863 C 384.783 607.513, 378.860 605.829, 371.966 604.122 C 353.531 599.557, 336.684 593.183, 317.172 583.390 C 284.405 566.944, 261.389 548.888, 239.343 522.331 C 228.538 509.316, 217.374 488.125, 214.115 474.444 C 211.481 463.389, 211.181 441.932, 213.463 427.750 C 214.359 422.182, 213.168 421.550, 210.045 425.936 M 388.659 428.895 C 386.463 434.382, 386.564 435.650, 389.250 436.370 C 390.488 436.701, 407.646 436.979, 427.380 436.986 L 463.260 437 462.743 432.413 C 462.459 429.890, 461.727 427.327, 461.116 426.716 C 460.363 425.963, 448.815 425.469, 425.162 425.179 L 390.317 424.750 388.659 428.895 M 249.941 432.703 C 245.814 436.176, 244.014 440.581, 243.564 448.308 C 242.455 467.388, 249.343 485.213, 263.098 498.859 C 272.377 508.063, 281.833 511.206, 289.040 507.479 C 296.352 503.698, 299.154 487.450, 295.073 472.486 C 291.526 459.477, 286.573 450.486, 278.422 442.262 C 266.811 430.545, 256.584 427.113, 249.941 432.703 M 583.365 432.944 C 571.999 438.682, 561.899 450.806, 557.390 464.120 C 549.093 488.625, 554.549 508.599, 569.500 508.450 C 588.616 508.261, 608.186 480.056, 608.323 452.500 C 608.371 442.726, 607.005 438.367, 602.538 434.037 C 597.493 429.147, 591.554 428.808, 583.365 432.944 M 387.433 447.313 C 387.156 448.036, 387.510 450.398, 388.219 452.563 L 389.508 456.500 424.712 456.763 C 464.092 457.057, 461.042 457.624, 462.523 449.732 L 463.223 446 425.580 446 C 395.420 446, 387.837 446.261, 387.433 447.313 M 641.627 450.261 C 641.297 451.493, 641.021 454.750, 641.012 457.500 C 640.995 463.308, 637.031 480.464, 634.196 487 C 619.157 521.673, 578.791 561.249, 537.500 581.804 C 517.890 591.566, 501.815 597.714, 484.500 602.076 C 468.789 606.034, 470 605.074, 470 613.578 C 470 617.660, 470.433 621, 470.961 621 C 471.490 621, 475.877 620.086, 480.711 618.970 C 503.924 613.607, 535.788 601.427, 554.870 590.623 C 573.436 580.110, 596.684 562.318, 610.041 548.400 C 636.544 520.782, 647.789 499.814, 650.863 472.282 C 651.764 464.210, 651.583 456.857, 650.390 453.097 C 650.042 451.999, 649.647 452.100, 648.581 453.559 C 647.423 455.143, 646.973 455.223, 645.608 454.090 C 644.724 453.356, 644 451.937, 644 450.937 C 644 448.193, 642.311 447.712, 641.627 450.261 M 260.048 454.798 C 257.337 457.509, 257 458.501, 257 463.763 C 257 468.362, 257.681 471.044, 260.058 475.800 C 266.445 488.582, 275.656 491.507, 281.159 482.500 C 287.003 472.936, 278.124 453.765, 267.169 452.296 C 263.595 451.816, 262.724 452.122, 260.048 454.798 M 580 453.823 C 575.234 456.384, 570.338 463.030, 568.461 469.485 C 567.046 474.352, 567.050 475.184, 568.500 478.655 C 572.186 487.477, 577.557 489.277, 584.717 484.090 C 590.353 480.007, 593.337 473.433, 593.428 464.897 C 593.485 459.546, 593.068 457.579, 591.401 455.331 C 588.794 451.815, 584.736 451.278, 580 453.823 M 578.765 463.867 C 573.856 469.701, 572.733 477.193, 576.548 478.657 C 578.987 479.593, 584.103 476.878, 586.115 473.580 C 588.237 470.100, 588.604 464.004, 586.800 462.200 C 584.753 460.153, 581.285 460.872, 578.765 463.867 M 263.667 462.667 C 263.300 463.033, 263 465.251, 263 467.595 C 263 471.080, 263.629 472.524, 266.447 475.512 C 270.354 479.656, 272.863 479.773, 274.719 475.900 C 276.085 473.050, 275.213 468.501, 272.512 464.377 C 271.391 462.667, 270.026 462, 267.644 462 C 265.823 462, 264.033 462.300, 263.667 462.667 M 397.556 466.910 C 396.479 468.651, 398.210 470.933, 402.526 473.462 C 413.447 479.863, 431.138 480.799, 442.670 475.587 C 450.089 472.234, 454.234 468.392, 451.974 466.963 C 450.064 465.755, 398.300 465.705, 397.556 466.910 M 527 471.031 C 527 473.407, 529.649 474.751, 531.225 473.175 C 532.012 472.388, 531.959 471.656, 531.035 470.542 C 529.224 468.360, 527 468.629, 527 471.031 M 535.245 475.250 C 535.471 475.938, 536.725 476.656, 538.030 476.846 C 540.103 477.148, 540.236 476.990, 539.080 475.596 C 537.514 473.709, 534.652 473.451, 535.245 475.250 M 391.667 501.667 C 390.743 502.590, 390.823 538.780, 391.750 539.315 C 392.163 539.553, 395.650 539.297, 399.500 538.746 C 408.886 537.403, 446.046 537.341, 453.281 538.656 C 456.866 539.308, 459.284 539.350, 459.644 538.766 C 460.770 536.945, 458.196 535.868, 449.903 534.690 C 441.527 533.500, 441.527 533.500, 440.821 529.500 C 440.433 527.300, 440.089 521.279, 440.058 516.121 L 440 506.742 434.124 507.406 C 426.587 508.259, 411.796 506.456, 401.239 503.396 C 391.806 500.663, 392.538 500.795, 391.667 501.667 M 316.819 508.531 C 311.523 511.288, 309.302 513.663, 313.125 512.479 C 317.247 511.203, 323 507.999, 323 506.980 C 323 505.565, 322.061 505.801, 316.819 508.531 M 209 525.001 C 209 527.563, 216.250 549.630, 221.977 564.500 C 224.096 570, 227.731 579.450, 230.056 585.500 C 239.033 608.861, 251.827 625.634, 273.933 643.024 C 292.342 657.506, 322.844 673.147, 347.697 680.848 C 368.568 687.315, 370.987 687.914, 371.112 686.640 C 371.174 686.013, 371.287 673.709, 371.362 659.297 C 371.500 633.094, 371.500 633.094, 369 632.502 C 367.625 632.176, 359.754 629.840, 351.510 627.310 C 322.014 618.260, 300.484 608.100, 275.441 591.413 C 255.592 578.188, 247.816 571.696, 235.693 558.229 C 224.795 546.122, 220.511 540.448, 215.394 531.345 C 211.186 523.860, 209 521.690, 209 525.001 M 317.987 531.846 C 316.056 532.893, 311.216 534.077, 307.234 534.477 C 303.251 534.877, 299.742 535.609, 299.435 536.105 C 298.421 537.746, 304.414 547.333, 310 553.006 C 317.584 560.708, 338.858 574.476, 340.554 572.779 C 342.094 571.240, 338.186 565.106, 330.277 556.650 C 323.845 549.773, 322 547.153, 322 544.900 C 322 543.305, 322.308 542, 322.685 542 C 323.062 542, 326.324 543.504, 329.935 545.342 C 333.546 547.180, 342.435 551.043, 349.689 553.926 C 361.431 558.593, 362.933 559.460, 363.384 561.834 C 363.663 563.300, 364.402 567.738, 365.026 571.695 C 366.232 579.331, 366.880 580.337, 371.272 581.387 C 373.257 581.861, 374.206 581.627, 374.615 580.562 C 374.928 579.744, 374.806 572.650, 374.343 564.797 L 373.500 550.518 356 543.401 C 346.375 539.487, 335.800 535.109, 332.500 533.673 C 323.853 529.910, 321.993 529.676, 317.987 531.846 M 512.655 535.137 C 507.790 537.396, 497.688 541.589, 490.205 544.453 C 478.772 548.830, 476.499 550.047, 475.961 552.081 C 475.608 553.411, 475.036 561.156, 474.688 569.292 C 473.999 585.401, 474.166 585.928, 479.538 584.580 C 482.820 583.756, 483.920 580.750, 485.239 569 C 485.826 563.775, 486.799 559.005, 487.403 558.401 C 488.006 557.796, 491.200 556.258, 494.500 554.982 C 505.708 550.649, 518.972 543.964, 522.492 540.873 C 526.091 537.713, 526.978 534.378, 524.800 532.200 C 523.055 530.455, 522.385 530.616, 512.655 535.137 M 185.500 536.922 C 178.661 538.980, 159.419 545.782, 150.500 549.295 C 144.554 551.636, 144.501 551.693, 144.591 555.579 C 144.641 557.735, 145.538 562.344, 146.584 565.820 C 148.219 571.255, 148.766 572.068, 150.492 571.622 C 152.378 571.135, 170.101 564.889, 183.500 559.989 C 186.800 558.782, 192.088 556.886, 195.250 555.775 C 199.079 554.431, 200.997 553.212, 200.992 552.128 C 200.987 551.233, 199.735 547.125, 198.209 543 C 195.022 534.383, 194.604 534.182, 185.500 536.922 M 166 550 C 163.399 552.601, 163.362 557.588, 165.934 558.965 C 169.134 560.677, 172.767 560.171, 174.443 557.777 C 178.938 551.360, 171.496 544.504, 166 550 M 677.698 549.781 C 675.231 552.508, 675.608 555.530, 678.872 559.183 C 681.676 562.321, 681.805 562.358, 684.296 560.725 C 687.887 558.373, 688.507 555.555, 686.277 551.723 C 684.038 547.874, 680.208 547.007, 677.698 549.781 M 406.054 550.091 C 400.563 551.168, 398.868 552.780, 398.661 557.125 C 398.503 560.436, 398.575 560.498, 402.500 560.410 C 404.700 560.360, 410.100 559.752, 414.500 559.057 C 422.670 557.768, 434.185 558.178, 444.774 560.135 C 450.301 561.157, 452.618 560.634, 449.971 558.962 C 449.162 558.451, 445.913 557.517, 442.750 556.886 C 437.238 555.787, 435.463 554.068, 438.135 552.417 C 438.868 551.964, 438.425 551.247, 436.885 550.393 C 434.140 548.872, 413.314 548.667, 406.054 550.091 M 178.060 577.030 C 163.518 581.989, 151.416 586.250, 151.167 586.500 C 150.918 586.749, 151.678 589.274, 152.857 592.110 C 154.036 594.946, 155 598.332, 155 599.633 C 155 600.935, 155.195 602, 155.434 602 C 155.673 602, 158.485 600.907, 161.684 599.571 C 164.883 598.235, 174.006 594.811, 181.958 591.961 C 198.714 585.957, 211.312 580.563, 211.767 579.198 C 212.162 578.014, 206.806 568.766, 205.474 568.331 C 204.938 568.156, 192.602 572.070, 178.060 577.030 M 412.112 569.129 C 405.407 570.242, 402.215 571.776, 399.794 575.049 C 397.886 577.630, 398.143 580.457, 400.363 581.309 C 401.027 581.564, 404.930 581.086, 409.035 580.247 C 418.364 578.340, 439.125 578.114, 444.230 579.864 C 451.705 582.425, 451.151 577.954, 443.382 573.027 C 436.310 568.542, 424.505 567.071, 412.112 569.129 M 656 571.046 C 656 571.480, 658.138 572.620, 660.750 573.580 C 663.362 574.540, 668.194 576.428, 671.486 577.775 C 678.871 580.796, 698.870 586.993, 701.250 586.997 C 702.212 586.999, 703 586.598, 703 586.107 C 703 585.057, 703.544 585.279, 685 578.786 C 669.493 573.358, 656 569.756, 656 571.046 M 404.325 590.421 C 399.831 592.430, 397.508 596.213, 399.027 599.051 C 400.076 601.010, 400.729 601.169, 405.348 600.593 C 415.784 599.292, 440.522 598.763, 444.127 599.764 C 446.319 600.373, 448.296 600.413, 449.127 599.865 C 450.969 598.650, 447.382 595.600, 440 592.104 C 435.038 589.755, 433.179 589.476, 421 589.251 C 411.049 589.067, 406.665 589.374, 404.325 590.421 M 203.500 601.910 C 195.450 604.282, 181.166 609.922, 180.507 610.989 C 179.437 612.720, 192.719 620.156, 202.744 623.439 C 205.629 624.384, 208.329 625.736, 208.744 626.443 C 209.160 627.150, 210.988 628.490, 212.808 629.420 C 214.627 630.350, 220.391 635.184, 225.617 640.163 C 238.635 652.565, 239.114 651.389, 227.824 634.748 C 220.926 624.578, 212 607.841, 212 605.073 C 212 602.685, 210.994 599.977, 210.143 600.071 C 209.789 600.110, 206.800 600.938, 203.500 601.910 M 407.185 609.925 C 403.269 610.928, 399 614.645, 399 617.052 C 399 620.577, 401.279 621.147, 410.651 619.965 C 415.518 619.352, 426.025 618.985, 434 619.150 C 442.869 619.334, 448.575 619.072, 448.694 618.475 C 448.964 617.118, 441.476 612.243, 437.113 610.935 C 432.434 609.533, 411.477 608.825, 407.185 609.925 M 597.477 619.812 C 581.313 635.515, 568.305 646.398, 564.233 647.626 C 562.180 648.245, 555.100 651.322, 548.500 654.464 C 532.659 662.006, 512.232 669.947, 496.908 674.521 C 482.641 678.778, 479.497 680.203, 477.937 683.118 C 475.959 686.813, 478.089 687.216, 488.093 685.037 C 513.664 679.469, 551.909 662.239, 567.800 649.127 C 570.935 646.541, 576.425 642.236, 580 639.561 C 583.575 636.885, 589.122 632.177, 592.327 629.098 C 598.501 623.165, 608.513 611.180, 607.849 610.515 C 607.631 610.298, 602.964 614.482, 597.477 619.812 M 301.053 630.750 C 299.249 637.245, 299.636 638.844, 303.250 639.825 C 305.099 640.327, 307.239 640.332, 308.216 639.837 C 309.553 639.158, 310.274 639.629, 311.486 641.973 C 312.981 644.864, 319.377 649, 322.353 649 C 324.282 649, 325 646.802, 325 640.902 C 325 636.299, 324.782 635.871, 321.750 634.520 C 317.906 632.809, 303.016 627, 302.471 627 C 302.264 627, 301.625 628.688, 301.053 630.750 M 412.224 628.738 C 405.503 629.207, 406.367 631.002, 413.309 630.994 C 423.282 630.982, 435.662 629.675, 433 628.914 C 430.412 628.174, 421.398 628.098, 412.224 628.738 M 533.775 630.559 C 528.984 633.159, 527.573 638.517, 530.557 642.777 C 532.660 645.781, 535.328 645.573, 539.211 642.102 C 541.883 639.715, 542.455 638.473, 542.455 635.052 C 542.455 629.133, 539.357 627.530, 533.775 630.559 M 397.220 640.741 L 390.939 641.097 391.220 653.290 L 391.500 665.483 423.500 665.219 C 441.100 665.073, 456.063 664.964, 456.750 664.977 C 457.663 664.994, 458 662.471, 458 655.625 C 458 644.489, 457.246 640, 455.375 640 C 454.291 640, 454 642.355, 454 651.145 L 454 662.290 447.250 661.717 C 437.011 660.849, 437.338 661.189, 438.154 652.229 C 438.541 647.978, 438.890 644.388, 438.929 644.250 C 438.968 644.112, 439.675 644, 440.500 644 C 442.617 644, 442.363 642.265, 440.066 641.035 C 438.249 640.063, 412.330 639.885, 397.220 640.741 M 496.923 643.923 C 489.231 651.615, 497.623 661.395, 505.923 654.411 C 509.754 651.188, 509.940 647.493, 506.460 643.740 C 503.200 640.224, 500.571 640.275, 496.923 643.923 M 341 649.428 L 341 656.856 346.654 658.972 C 354.345 661.849, 355.324 661.493, 356.238 655.488 C 357.447 647.538, 356.844 646.469, 349.810 644.093 C 340.775 641.042, 341 640.905, 341 649.428 M 399.657 678.486 C 397.292 680.851, 397.601 682.693, 400.706 684.727 C 403.065 686.272, 405.857 686.494, 422.456 686.452 C 441.766 686.403, 448.749 685.325, 449.762 682.236 C 449.996 681.519, 448.513 680.232, 446.338 679.265 C 443.231 677.884, 438.578 677.490, 421.907 677.194 C 403.757 676.873, 401.117 677.026, 399.657 678.486 M 400.250 698.100 C 397.837 700.610, 398.762 704.004, 402.250 705.438 C 411.742 709.339, 429.904 709.759, 442 706.358 C 448.316 704.581, 450 703.458, 450 701.019 C 450 699.471, 448.296 699.217, 434.250 698.664 C 425.587 698.323, 414.675 697.764, 410 697.422 C 403.662 696.958, 401.182 697.130, 400.250 698.100 M 399.567 717.926 C 397.023 720.737, 397.980 723.174, 402.638 725.744 C 412.466 731.165, 433.294 730.888, 445 725.181 C 451.413 722.055, 452.371 719.413, 447 719.664 C 428.020 720.550, 419.076 720.174, 411 718.147 C 400.724 715.568, 401.684 715.587, 399.567 717.926 M 399.112 739.381 C 396.820 741.820, 396.820 741.820, 399.011 744.011 C 406.954 751.954, 430.333 753.960, 442.754 747.764 C 452.899 742.703, 454.129 737.652, 444.512 740.546 C 435.325 743.311, 413.843 741.757, 402.952 737.540 C 402.026 737.182, 400.483 737.922, 399.112 739.381 M 399.725 757.609 C 399.326 758.007, 399 759.406, 399 760.716 C 399 764.196, 412.013 770.279, 420.631 770.827 C 428.627 771.337, 442 767.053, 442 763.983 C 442 763.550, 436.038 763.014, 428.750 762.791 C 418.185 762.467, 414.284 761.931, 409.500 760.146 C 400.730 756.873, 400.516 756.818, 399.725 757.609" stroke="none" fill="#fafaf9" fill-rule="evenodd"/></svg>